<svg width="44" height="48" viewBox="0 0 44 48" fill="none" xmlns="http://www.w3.org/2000/svg">
<g clip-path="url(#clip0_1_2107)">
<g clip-path="url(#clip1_1_2107)">
<path d="M30.379 1.5332H13.1659C9.80239 1.53702 6.57771 2.87488 4.19932 5.25327C1.82093 7.63166 0.483067 10.8564 0.479248 14.2199V31.4318C0.483067 34.7954 1.82091 38.0201 4.19929 40.3985C6.57767 42.777 9.80237 44.1149 13.1659 44.1187H30.379C33.7426 44.1149 36.9673 42.777 39.3457 40.3985C41.724 38.0201 43.0619 34.7954 43.0657 31.4318V14.2199C43.0618 10.8564 41.7239 7.6317 39.3455 5.25333C36.9672 2.87495 33.7426 1.53708 30.379 1.5332ZM33.0618 16.7431C33.4292 24.9348 27.3204 34.0699 16.5057 34.0699C13.3399 34.0728 10.2402 33.1641 7.57696 31.4525C10.6574 31.8225 13.7588 30.9549 16.2001 29.0402C14.9848 29.0174 13.8069 28.6153 12.8313 27.89C11.8558 27.1648 11.1314 26.1528 10.7594 24.9955C11.6321 25.163 12.5315 25.1292 13.3891 24.8966C12.0589 24.6266 10.8645 23.901 10.0117 22.845C9.15889 21.7889 8.70115 20.4685 8.71729 19.1112C9.52622 19.5611 10.4311 19.8106 11.3563 19.8389C10.1232 19.0151 9.25041 17.7524 8.91552 16.3078C8.58063 14.8631 8.80883 13.3452 9.55368 12.0628C11.0161 13.8624 12.8407 15.3343 14.9089 16.3829C16.9771 17.4315 19.2428 18.0333 21.5587 18.1494C21.2674 16.9004 21.3962 15.5902 21.9251 14.4219C22.4539 13.2535 23.3534 12.2922 24.4841 11.6869C25.6147 11.0816 26.9135 10.8661 28.179 11.0738C29.4446 11.2815 30.6063 11.9008 31.4842 12.8357C32.7887 12.5792 34.0396 12.1012 35.1828 11.4224C34.7491 12.7717 33.8392 13.917 32.6229 14.6446C33.7777 14.5079 34.9054 14.1989 35.9687 13.728C35.1864 14.8979 34.2027 15.919 33.0618 16.7431Z" fill="#222222"/>
</g>
</g>
<defs>
<clipPath id="clip0_1_2107">
<rect width="43" height="47.2" fill="white" transform="translate(0.475098 0.638672)"/>
</clipPath>
<clipPath id="clip1_1_2107">
<rect width="43" height="44" fill="white" transform="translate(0.475098 0.638672)"/>
</clipPath>
</defs>
</svg>
