<svg width="45" height="48" viewBox="0 0 45 48" fill="none" xmlns="http://www.w3.org/2000/svg">
<g clip-path="url(#clip0_1_2111)">
<g clip-path="url(#clip1_1_2111)">
<path d="M31.2691 1.5332H14.0561C10.6925 1.53702 7.46784 2.87488 5.08946 5.25327C2.71107 7.63166 1.3732 10.8564 1.36938 14.2199V31.4325C1.3732 34.7961 2.71107 38.0208 5.08946 40.3992C7.46784 42.7776 10.6925 44.1154 14.0561 44.1192H31.2691C34.6325 44.1152 37.857 42.7772 40.2352 40.3989C42.6134 38.0205 43.9511 34.7959 43.9549 31.4325V14.2197C43.951 10.8564 42.6132 7.63188 40.235 5.25358C37.8569 2.87529 34.6325 1.53733 31.2691 1.5332ZM24.5803 29.1498C22.8231 29.1498 21.1701 28.197 20.6039 27.1165C20.6039 27.1165 19.6583 30.8733 19.4591 31.5989C18.7552 34.1616 16.6816 36.7262 16.5201 36.9352C16.4951 36.9692 16.4605 36.9951 16.4209 37.0097C16.3812 37.0243 16.3381 37.0268 16.297 37.0171C16.2559 37.0073 16.2186 36.9857 16.1897 36.9549C16.1608 36.9241 16.1416 36.8854 16.1345 36.8437C16.0894 36.5165 15.5608 33.2831 16.1824 30.645C16.4943 29.3208 18.2769 21.7591 18.2769 21.7591C17.9229 20.9455 17.7456 20.066 17.7565 19.1787C17.7565 16.7619 19.155 14.9579 20.8966 14.9579C22.3763 14.9579 23.0921 16.0717 23.0921 17.4061C23.0921 18.8978 22.1438 21.1259 21.6539 23.1933C21.2471 24.9234 22.5219 26.3339 24.2229 26.3339C27.3066 26.3339 29.3841 22.3653 29.3841 17.663C29.3841 14.0901 26.9829 11.4145 22.612 11.4145C17.676 11.4145 14.5978 15.1031 14.5978 19.225C14.5978 20.6446 15.0167 21.6481 15.6723 22.4226C15.9748 22.7794 16.0156 22.9227 15.9067 23.3302C15.8273 23.6306 15.6493 24.3542 15.5746 24.6397C15.5605 24.7276 15.5258 24.8109 15.4731 24.8827C15.4205 24.9545 15.3515 25.0127 15.2719 25.0525C15.1923 25.0924 15.1043 25.1127 15.0153 25.1117C14.9263 25.1108 14.8388 25.0887 14.7601 25.0472C12.4883 24.1184 11.4263 21.6223 11.4263 18.8173C11.4263 14.1862 15.3274 8.62997 23.0602 8.62997C29.2738 8.62997 33.3648 13.1345 33.3648 17.9718C33.362 24.3707 29.8135 29.1498 24.5803 29.1498Z" fill="#222222"/>
</g>
</g>
<defs>
<clipPath id="clip0_1_2111">
<rect width="44" height="47.2" fill="white" transform="translate(0.475098 0.638672)"/>
</clipPath>
<clipPath id="clip1_1_2111">
<rect width="44" height="44" fill="white" transform="translate(0.475098 0.638672)"/>
</clipPath>
</defs>
</svg>
