<svg width="46" height="48" viewBox="0 0 46 48" fill="none" xmlns="http://www.w3.org/2000/svg">
<g clip-path="url(#clip0_1_2115)">
<g clip-path="url(#clip1_1_2115)">
<path d="M13.8122 44.6078C10.4248 44.604 7.17722 43.2566 4.78199 40.8613C2.38675 38.466 1.03944 35.2185 1.03564 31.8311V13.8353C1.03944 10.4479 2.38675 7.20036 4.78199 4.80509C7.17722 2.40981 10.4248 1.06246 13.8122 1.05859H31.8076C35.1951 1.06239 38.4427 2.40971 40.838 4.805C43.2333 7.20028 44.5806 10.4479 44.5844 13.8353V31.8308C44.5806 35.2183 43.2333 38.4659 40.838 40.8612C38.4427 43.2565 35.1951 44.6038 31.8076 44.6076L13.8122 44.6078ZM13.8122 4.56473C11.3545 4.56782 8.99833 5.5456 7.26058 7.28359C5.52282 9.02157 4.54532 11.3779 4.54255 13.8356V31.8311C4.54532 34.2888 5.52277 36.6451 7.26052 38.3831C8.99827 40.1212 11.3545 41.099 13.8122 41.1022H31.8076C34.2656 41.0994 36.6222 40.1217 38.3603 38.3837C40.0983 36.6456 41.076 34.2891 41.0787 31.8311V13.8353C41.0759 11.3774 40.0982 9.02092 38.3602 7.28291C36.6221 5.54489 34.2656 4.56726 31.8076 4.56449L13.8122 4.56473Z" fill="#222222"/>
<path d="M22.8099 33.863C20.6288 33.863 18.4966 33.2162 16.6831 32.0044C14.8695 30.7925 13.4561 29.0702 12.6214 27.055C11.7868 25.0399 11.5684 22.8225 11.9939 20.6833C12.4194 18.5441 13.4698 16.5791 15.0121 15.0368C16.5544 13.4945 18.5194 12.4441 20.6586 12.0186C22.7979 11.5931 25.0153 11.8114 27.0304 12.6461C29.0455 13.4808 30.7679 14.8942 31.9797 16.7078C33.1915 18.5213 33.8383 20.6535 33.8384 22.8346C33.8351 25.7585 32.6721 28.5618 30.6046 30.6293C28.5371 32.6968 25.7338 33.8598 22.8099 33.863ZM22.8099 15.3121C21.3221 15.3122 19.8678 15.7534 18.6308 16.58C17.3937 17.4066 16.4296 18.5815 15.8602 19.956C15.2909 21.3306 15.142 22.843 15.4323 24.3022C15.7225 25.7614 16.4389 27.1018 17.491 28.1538C18.543 29.2059 19.8833 29.9223 21.3425 30.2126C22.8017 30.5028 24.3143 30.3539 25.6888 29.7846C27.0634 29.2152 28.2382 28.2511 29.0648 27.0141C29.8914 25.777 30.3326 24.3226 30.3327 22.8349C30.3304 20.8404 29.5371 18.9283 28.1268 17.518C26.7165 16.1076 24.8044 15.3144 22.8099 15.3121Z" fill="#222222"/>
<path d="M34.3471 13.6781C33.8976 13.6781 33.4582 13.5448 33.0845 13.2951C32.7108 13.0454 32.4195 12.6904 32.2474 12.2752C32.0754 11.8599 32.0304 11.403 32.1181 10.9621C32.2058 10.5212 32.4223 10.1163 32.7401 9.79845C33.0579 9.48061 33.4629 9.26417 33.9037 9.17648C34.3446 9.08879 34.8015 9.13381 35.2168 9.30583C35.6321 9.47784 35.987 9.76911 36.2367 10.1428C36.4865 10.5166 36.6197 10.956 36.6197 11.4055C36.619 12.008 36.3794 12.5856 35.9533 13.0117C35.5273 13.4377 34.9496 13.6774 34.3471 13.6781Z" fill="#222222"/>
</g>
</g>
<defs>
<clipPath id="clip0_1_2115">
<rect width="45" height="47.2" fill="white" transform="translate(0.475098 0.638672)"/>
</clipPath>
<clipPath id="clip1_1_2115">
<rect width="45" height="44" fill="white" transform="translate(0.475098 0.638672)"/>
</clipPath>
</defs>
</svg>
