<svg width="44" height="48" viewBox="0 0 44 48" fill="none" xmlns="http://www.w3.org/2000/svg">
<g clip-path="url(#clip0_1_2103)">
<g clip-path="url(#clip1_1_2103)">
<path d="M30.5117 1.5332H13.2989C9.93534 1.53696 6.71057 2.87479 4.33217 5.25319C1.95377 7.63159 0.61594 10.8564 0.612183 14.2199V31.4328C0.61594 34.7963 1.95377 38.021 4.33217 40.3994C6.71057 42.7778 9.93534 44.1157 13.2989 44.1195H23.6854V28.0839H18.3561V21.9194H23.6854V17.3742C23.6854 12.0973 26.902 9.22038 31.6174 9.22038C33.2067 9.21494 34.7951 9.29728 36.3753 9.46705V14.9739L33.1068 14.9825C30.545 14.9825 30.0512 16.1997 30.0512 17.9786V21.9194H36.154L35.3628 28.0818H30.0516V44.1174H30.5122C33.8758 44.1136 37.1005 42.7758 39.4789 40.3974C41.8573 38.019 43.1952 34.7942 43.1989 31.4307V14.2188C43.1948 10.8553 41.8567 7.63083 39.4782 5.25268C37.0998 2.87453 33.8752 1.5369 30.5117 1.5332Z" fill="#222222"/>
</g>
</g>
<defs>
<clipPath id="clip0_1_2103">
<rect width="43" height="47.2" fill="white" transform="translate(0.474976 0.638672)"/>
</clipPath>
<clipPath id="clip1_1_2103">
<rect width="43" height="44" fill="white" transform="translate(0.474976 0.638672)"/>
</clipPath>
</defs>
</svg>
