<svg width="22" height="25" viewBox="0 0 22 25" fill="none" xmlns="http://www.w3.org/2000/svg">
<g clip-path="url(#clip0_1_500)">
<path d="M19.4205 23.9934H1.88721C1.56819 23.9932 1.26229 23.867 1.03671 23.6425C0.811121 23.418 0.684292 23.1135 0.684082 22.7961V6.56473C0.684292 6.24723 0.811121 5.9428 1.03671 5.71829C1.26229 5.49378 1.56819 5.36756 1.88721 5.36736H19.4205C19.7395 5.36756 20.0454 5.49378 20.2709 5.71829C20.4965 5.9428 20.6233 6.24723 20.6236 6.56473V22.7965C20.6232 23.114 20.4963 23.4183 20.2707 23.6427C20.0452 23.8671 19.7394 23.9932 19.4205 23.9934ZM1.88721 6.42052C1.84864 6.42052 1.81165 6.43577 1.78437 6.46291C1.7571 6.49006 1.74177 6.52686 1.74177 6.56525V22.7965C1.74177 22.8349 1.7571 22.8718 1.78437 22.8989C1.81165 22.9261 1.84864 22.9413 1.88721 22.9413H19.4205C19.459 22.9413 19.496 22.9261 19.5233 22.8989C19.5505 22.8718 19.5659 22.8349 19.5659 22.7965V6.56473C19.5659 6.52634 19.5505 6.48952 19.5233 6.46238C19.496 6.43524 19.459 6.41998 19.4205 6.41998L1.88721 6.42052Z" fill="black"/>
<path d="M15.4056 8.79486C15.2653 8.79486 15.1308 8.73946 15.0316 8.64073C14.9324 8.54206 14.8767 8.4082 14.8767 8.26859V6.22529C14.8767 5.1204 14.4357 4.06076 13.6506 3.27949C12.8656 2.49821 11.8009 2.0593 10.6907 2.0593C9.58049 2.0593 8.51575 2.49821 7.73069 3.27949C6.94568 4.06076 6.50465 5.1204 6.50465 6.22529V8.26859C6.50465 8.4082 6.44893 8.54206 6.34976 8.64073C6.25058 8.73946 6.11607 8.79486 5.97581 8.79486C5.83555 8.79486 5.70103 8.73946 5.60185 8.64073C5.50268 8.54206 5.44696 8.4082 5.44696 8.26859V6.22529C5.44696 4.84122 5.99942 3.51385 6.98281 2.53517C7.96622 1.55648 9.29995 1.00667 10.6907 1.00667C12.0814 1.00667 13.4152 1.55648 14.3986 2.53517C15.3819 3.51385 15.9344 4.84122 15.9344 6.22529V8.26859C15.9344 8.4082 15.8787 8.54206 15.7795 8.64073C15.6803 8.73946 15.5458 8.79486 15.4056 8.79486Z" fill="black"/>
</g>
<path d="M14.1377 14.7305V16.248C14.1377 17.0638 14.0648 17.752 13.9189 18.3125C13.7731 18.873 13.5635 19.3242 13.29 19.666C13.0166 20.0078 12.6862 20.2562 12.2988 20.4111C11.916 20.5615 11.4831 20.6367 11 20.6367C10.6172 20.6367 10.264 20.5889 9.94043 20.4932C9.61686 20.3975 9.3252 20.2448 9.06543 20.0352C8.81022 19.821 8.59147 19.543 8.40918 19.2012C8.22689 18.8594 8.08789 18.4447 7.99219 17.957C7.89648 17.4694 7.84863 16.8997 7.84863 16.248V14.7305C7.84863 13.9147 7.92155 13.2311 8.06738 12.6797C8.21777 12.1283 8.42969 11.6862 8.70312 11.3535C8.97656 11.0163 9.30469 10.7747 9.6875 10.6289C10.0749 10.4831 10.5078 10.4102 10.9863 10.4102C11.3737 10.4102 11.7292 10.458 12.0527 10.5537C12.3809 10.6449 12.6725 10.793 12.9277 10.998C13.1829 11.1986 13.3994 11.4674 13.5771 11.8047C13.7594 12.1374 13.8984 12.5452 13.9941 13.0283C14.0898 13.5114 14.1377 14.0788 14.1377 14.7305ZM12.8662 16.4531V14.5186C12.8662 14.0719 12.8389 13.68 12.7842 13.3428C12.734 13.001 12.6589 12.7093 12.5586 12.4678C12.4583 12.2262 12.3307 12.0303 12.1758 11.8799C12.0254 11.7295 11.8499 11.6201 11.6494 11.5518C11.4535 11.4788 11.2324 11.4424 10.9863 11.4424C10.6855 11.4424 10.4189 11.4993 10.1865 11.6133C9.9541 11.7227 9.75814 11.8981 9.59863 12.1396C9.44368 12.3812 9.3252 12.6979 9.24316 13.0898C9.16113 13.4818 9.12012 13.958 9.12012 14.5186V16.4531C9.12012 16.8997 9.14518 17.2939 9.19531 17.6357C9.25 17.9775 9.32975 18.2738 9.43457 18.5244C9.53939 18.7705 9.66699 18.9733 9.81738 19.1328C9.96777 19.2923 10.141 19.4108 10.3369 19.4883C10.5374 19.5612 10.7585 19.5977 11 19.5977C11.3099 19.5977 11.5811 19.5384 11.8135 19.4199C12.0459 19.3014 12.2396 19.1169 12.3945 18.8662C12.554 18.611 12.6725 18.2852 12.75 17.8887C12.8275 17.4876 12.8662 17.0091 12.8662 16.4531Z" fill="#020202"/>
<defs>
<clipPath id="clip0_1_500">
<rect width="21" height="24" fill="white" transform="translate(0.5 0.5)"/>
</clipPath>
</defs>
</svg>
