<svg xmlns:xlink="http://www.w3.org/1999/xlink" xmlns="http://www.w3.org/2000/svg" height="22" width="22" viewBox="0 0 24 24" preserveAspectRatio="xMinYMid meet"><defs><g id="close"><path fill="none" d="M0 0h24v24H0V0z"></path><path stroke="currentColor" fill="currentColor" d="M18.3 5.71c-.39-.39-1.02-.39-1.41 0L12 10.59 7.11 5.7c-.39-.39-1.02-.39-1.41 0-.39.39-.39 1.02 0 1.41L10.59 12 5.7 16.89c-.39.39-.39 1.02 0 1.41.39.39 1.02.39 1.41 0L12 13.41l4.89 4.89c.39.39 1.02.39 1.41 0 .39-.39.39-1.02 0-1.41L13.41 12l4.89-4.89c.38-.38.38-1.02 0-1.4z"></path></g></defs><title>Close Menu</title><use xlink:href="#close"></use></svg>