<svg xmlns:xlink="http://www.w3.org/1999/xlink" xmlns="http://www.w3.org/2000/svg" height="24" width="27" viewBox="0 0 33 30" preserveAspectRatio="xMinYMid meet"><defs><g id="coupon"><rect x="0.75" fill="transparent" y="1.0957" width="31.5" height="27.6923" rx="1.25" stroke="currentColor" stroke-width="1.5" stroke-dasharray="2 2"></rect><path fill-rule="evenodd" clip-rule="evenodd" d="M15.6946 12.5504C15.9519 12.6893 16.6345 12.829 17.1496 12.9346C17.7896 13.0657 18.5592 13.2233 19.3224 13.4839C18.4005 12.8607 17.2296 12.4845 16.1683 12.4845C15.8979 12.4845 15.7596 12.5228 15.6946 12.5504ZM13.3695 17.3078C14.0395 17.9195 15.2528 18.7287 16.9825 18.7287C17.5013 18.7287 17.7903 18.6163 17.8991 18.5398C17.6431 18.4115 16.99 18.2896 16.4956 18.1976C15.5855 18.0279 14.4165 17.8102 13.3695 17.3078ZM15.9783 24.0883H17.5214V22.2365L17.9323 22.1807C20.495 21.8331 21.9062 20.3284 21.9062 17.9437C21.9062 15.1645 19.5728 14.4565 16.9736 13.9236C15.6588 13.6544 14.7092 13.4597 14.7092 12.6053C14.7092 12.1846 14.8988 11.4785 16.1687 11.4785C17.4358 11.4785 18.786 11.9157 19.8685 12.6628L21.4081 10.4789C20.4223 9.72713 19.2535 9.24773 17.9275 9.05246L17.5214 8.99264V7.06294H15.9783V8.9751L15.5685 9.03204C12.693 9.43034 11.6725 11.4409 11.6725 13.0418C11.6725 16.2766 14.5534 16.8135 16.657 17.2058C17.9038 17.4382 18.8886 17.6216 18.8886 18.4841C18.8886 18.7777 18.7511 19.7351 16.9827 19.7351C15.075 19.7351 13.7035 18.8913 12.8962 18.1945L11.4037 20.4777C12.5256 21.4552 13.8872 22.0128 15.5519 22.179L15.9783 22.2216V24.0883ZM18.4615 25.0958H15.0386V23.131C13.201 22.8719 11.6993 22.1506 10.458 20.9335L10.1541 20.6353L12.6129 16.874C11.5371 16.1366 10.7328 14.9693 10.7328 13.0428C10.7328 10.9681 12.0683 8.69045 15.0386 8.1032V6.05731H18.4615V8.12477C19.9568 8.4112 21.2673 9.03843 22.3622 9.99321L22.7134 10.2995L20.2133 13.8454C21.6411 14.5293 22.8464 15.7113 22.8464 17.9447C22.8464 20.7248 21.255 22.5898 18.4615 23.114V25.0958Z" fill="currentColor"></path></g></defs><!----><use xlink:href="#coupon"></use></svg>