<svg xmlns:xlink="http://www.w3.org/1999/xlink" xmlns="http://www.w3.org/2000/svg" width="44" height="44" viewBox="0 0 44 44">
<path d="M30.794 0.894043H13.581C10.2174 0.897862 6.99274 2.23572 4.61436 4.61411C2.23597 6.9925 0.898106 10.2172 0.894287 13.5807V30.7933C0.898106 34.1569 2.23597 37.3816 4.61436 39.76C6.99274 42.1384 10.2174 43.4762 13.581 43.48H30.794C34.1574 43.476 37.3819 42.138 39.7601 39.7597C42.1383 37.3813 43.476 34.1567 43.4798 30.7933V13.5805C43.4759 10.2172 42.1381 6.99272 39.7599 4.61442C37.3818 2.23613 34.1574 0.898169 30.794 0.894043ZM24.1052 28.5106C22.348 28.5106 20.695 27.5578 20.1288 26.4773C20.1288 26.4773 19.1832 30.2341 18.984 30.9597C18.2801 33.5224 16.2065 36.087 16.045 36.296C16.02 36.33 15.9854 36.3559 15.9458 36.3705C15.9061 36.3851 15.863 36.3876 15.8219 36.3779C15.7808 36.3681 15.7435 36.3465 15.7146 36.3157C15.6857 36.2849 15.6665 36.2462 15.6594 36.2045C15.6143 35.8773 15.0857 32.6439 15.7073 30.0058C16.0192 28.6816 17.8018 21.1199 17.8018 21.1199C17.4478 20.3063 17.2705 19.4268 17.2814 18.5395C17.2814 16.1227 18.6799 14.3187 20.4215 14.3187C21.9012 14.3187 22.617 15.4325 22.617 16.7669C22.617 18.2586 21.6687 20.4867 21.1788 22.5541C20.772 24.2842 22.0468 25.6947 23.7478 25.6947C26.8315 25.6947 28.909 21.7261 28.909 17.0238C28.909 13.4509 26.5078 10.7753 22.1369 10.7753C17.2009 10.7753 14.1227 14.4639 14.1227 18.5858C14.1227 20.0054 14.5416 21.0089 15.1972 21.7834C15.4997 22.1402 15.5405 22.2835 15.4316 22.691C15.3522 22.9914 15.1742 23.715 15.0995 24.0005C15.0854 24.0884 15.0507 24.1717 14.998 24.2435C14.9454 24.3153 14.8764 24.3735 14.7968 24.4133C14.7172 24.4532 14.6292 24.4735 14.5402 24.4725C14.4512 24.4716 14.3637 24.4495 14.285 24.408C12.0132 23.4792 10.9512 20.9831 10.9512 18.1781C10.9512 13.547 14.8523 7.99081 22.5851 7.99081C28.7987 7.99081 32.8897 12.4953 32.8897 17.3326C32.8869 23.7315 29.3375 28.5106 24.1043 28.5106H24.1052Z" fill="#222222"></path>
</svg>