<svg xmlns:xlink="http://www.w3.org/1999/xlink" xmlns="http://www.w3.org/2000/svg" height="18" width="16" viewBox="0 0 16 18" preserveAspectRatio="xMinYMid meet"><defs><g id="storebag"><path d="M14.4281 17.4002H1.67515C1.4431 17.4 1.2206 17.3078 1.05652 17.1437C0.89244 16.9796 0.800202 16.7571 0.800049 16.5251V4.66244C0.800227 4.43041 0.892481 4.20792 1.05656 4.04385C1.22063 3.87977 1.44311 3.78753 1.67515 3.78735H14.4281C14.6601 3.78753 14.8826 3.87977 15.0467 4.04385C15.2108 4.20792 15.303 4.43041 15.3032 4.66244V16.5255C15.3029 16.7575 15.2106 16.9799 15.0466 17.1439C14.8825 17.3079 14.6601 17.4 14.4281 17.4002ZM1.67515 4.55696C1.64709 4.55696 1.62019 4.56811 1.60035 4.58795C1.58051 4.60778 1.56937 4.63469 1.56937 4.66275V16.5258C1.56937 16.5538 1.58051 16.5807 1.60035 16.6006C1.62019 16.6204 1.64709 16.6315 1.67515 16.6315H14.4281C14.4561 16.6315 14.4831 16.6204 14.5029 16.6006C14.5227 16.5807 14.5339 16.5538 14.5339 16.5258V4.66244C14.5339 4.63439 14.5227 4.6075 14.5029 4.58767C14.4831 4.56783 14.4561 4.55667 14.4281 4.55667L1.67515 4.55696Z" fill="currentColor"></path><path d="M11.5079 6.29218C11.4058 6.29218 11.308 6.25165 11.2359 6.17951C11.1637 6.10737 11.1232 6.00954 11.1232 5.90752V4.41416C11.1232 3.60665 10.8024 2.8322 10.2314 2.2612C9.66041 1.6902 8.88597 1.36942 8.07846 1.36942C7.27094 1.36942 6.4965 1.6902 5.92551 2.2612C5.35451 2.8322 5.03373 3.60665 5.03373 4.41416V5.90752C5.03373 6.00954 4.9932 6.10737 4.92107 6.17951C4.84893 6.25165 4.75108 6.29218 4.64906 6.29218C4.54705 6.29218 4.44921 6.25165 4.37707 6.17951C4.30494 6.10737 4.2644 6.00954 4.2644 5.90752V4.41416C4.2644 3.40261 4.66624 2.43249 5.38151 1.71722C6.09679 1.00195 7.06691 0.600098 8.07846 0.600098C9.09001 0.600098 10.0601 1.00195 10.7754 1.71722C11.4907 2.43249 11.8925 3.40261 11.8925 4.41416V5.90752C11.8925 6.00954 11.852 6.10737 11.7799 6.17951C11.7077 6.25165 11.6099 6.29218 11.5079 6.29218Z" fill="currentColor"></path><path d="M11.9201 15.4619L11.6316 15.4607H4.19538V9.00262H4.03296C3.95532 9.00252 3.88089 8.97161 3.82601 8.91669C3.77113 8.86177 3.74029 8.78732 3.74023 8.70969V8.38332C3.74044 8.06226 3.86798 7.75438 4.09488 7.52723C4.32178 7.30007 4.6295 7.17219 4.95056 7.17163H11.1652C11.4863 7.17222 11.794 7.3001 12.0209 7.52725C12.2478 7.7544 12.3753 8.06228 12.3755 8.38332V8.70969C12.3754 8.78731 12.3446 8.86175 12.2897 8.91667C12.2349 8.97158 12.1605 9.00249 12.0828 9.00262H11.9203L11.9201 15.4619ZM4.44521 15.2107H11.6701V8.75249H12.0827C12.0883 8.75247 12.0938 8.75136 12.099 8.7492C12.1042 8.74704 12.1089 8.74386 12.1129 8.73988C12.1168 8.7359 12.12 8.73118 12.1221 8.72598C12.1243 8.72078 12.1254 8.71521 12.1253 8.70959V8.38323C12.1252 8.12847 12.024 7.88416 11.844 7.7039C11.664 7.52363 11.4198 7.42211 11.165 7.42158H4.95037C4.6956 7.42208 4.45142 7.5236 4.27138 7.70387C4.09135 7.88414 3.99015 8.12845 3.98997 8.38323V8.70959C3.98997 8.72095 3.99448 8.73186 4.00251 8.7399C4.01053 8.74794 4.02141 8.75246 4.03277 8.75249H4.44521V15.2107ZM11.5848 15.1242H4.53071V8.75211H11.5849L11.5848 15.1242ZM10.1173 14.8742H11.3348V9.00213H4.78074V14.8742H5.99819V11.8125H5.92549C5.86056 11.8124 5.79832 11.7865 5.75244 11.7406C5.70655 11.6946 5.68077 11.6324 5.68075 11.5674C5.68075 10.5429 6.7026 9.77039 8.05776 9.77039C9.41292 9.77039 10.4349 10.5429 10.4349 11.5674C10.4348 11.6324 10.409 11.6946 10.3631 11.7406C10.3172 11.7865 10.255 11.8124 10.19 11.8125H10.1174L10.1173 14.8742ZM8.31673 14.8742H9.62746V11.8442H8.31673V14.8742ZM6.48767 14.8742H7.82725V11.8442H6.48767V14.8742ZM8.07719 11.5942H9.8673V11.5724H6.24812V11.5942H8.07719ZM6.20052 11.3225H9.91499C9.75776 10.6993 9.00556 10.2603 8.05766 10.2603C7.10976 10.2603 6.35785 10.6994 6.20052 11.323V11.3225ZM12.04 8.66623H4.07546V8.38283C4.07554 8.15066 4.16773 7.92801 4.33179 7.76374C4.49586 7.59948 4.7184 7.50704 4.95056 7.50668H11.1652C11.3974 7.50704 11.6199 7.59948 11.784 7.76374C11.9481 7.92801 12.0403 8.15066 12.0403 8.38283L12.04 8.66623ZM4.3254 8.41619H11.79V8.38283C11.79 8.21697 11.7241 8.05791 11.6069 7.94053C11.4898 7.82315 11.3308 7.75703 11.165 7.7567H4.95028C4.78442 7.75703 4.62546 7.82315 4.50828 7.94053C4.39109 8.05791 4.32526 8.21697 4.32521 8.38283L4.3254 8.41619Z" fill="currentColor"></path></g></defs><!----><use xlink:href="#storebag"></use></svg>