<svg xmlns:xlink="http://www.w3.org/1999/xlink" xmlns="http://www.w3.org/2000/svg" height="21" width="21" viewBox="0 0 24 24" preserveAspectRatio="xMinYMid meet"><defs><g id="cardstack"><path fill="currentColor" d="M25.9,13h-1.8v3.1H21v1.8h3.1V21h1.8v-3.1H29v-1.8h-3.1V13z"></path><path fill="currentColor" d="M33,2H17c-1.1,0-2,0.9-2,2v4H7c-1.1,0-2,0.9-2,2v26c0,1.1,0.9,2,2,2h16c1.1,0,2-0.9,2-2v-4h8c1.1,0,2-0.9,2-2V4C35,2.9,34.1,2,33,2z M23,36H7V10h8v9h-0.9v3.1H11v1.8h3.1V27H15v3c0,1.1,0.9,2,2,2h6V36z M33,30H17V4h16V30z"></path></g></defs><!----><use xlink:href="#cardstack"></use></svg>