<svg xmlns:xlink="http://www.w3.org/1999/xlink" xmlns="http://www.w3.org/2000/svg" height="24" width="20" viewBox="0 0 24 24" preserveAspectRatio="xMinYMid meet"><defs><g id="person"><path d="M18.7499 15.2357C17.9662 14.8304 17.135 14.5245 16.2755 14.3249C17.7421 13.5721 18.9141 12.3496 19.6043 10.8526C20.2946 9.35557 20.4633 7.67045 20.0835 6.06633C19.7037 4.4622 18.7973 3.03161 17.5091 2.00303C16.2209 0.974457 14.6251 0.407222 12.9767 0.391919C11.3283 0.376617 9.72236 0.914137 8.41528 1.91862C7.1082 2.92311 6.17544 4.33662 5.76593 5.93341C5.35642 7.53021 5.49382 9.21817 6.15616 10.7277C6.8185 12.2373 7.96755 13.4814 9.41987 14.2613C8.41823 14.4261 7.44738 14.7419 6.54042 15.1979C0.130419 19.1404 0.599554 20.2713 0.691937 31.5249H25.1734C24.7725 20.6531 26.1788 19.9447 18.7499 15.2357ZM6.95033 7.76366C6.95016 6.58477 7.29963 5.4323 7.9545 4.45203C8.60936 3.47175 9.54023 2.70771 10.6294 2.25652C11.7185 1.80533 12.917 1.68727 14.0732 1.91727C15.2295 2.14726 16.2915 2.71499 17.125 3.54864C17.9586 4.38229 18.5262 5.44441 18.7561 6.60068C18.986 7.75694 18.8678 8.9554 18.4164 10.0445C17.9651 11.1336 17.201 12.0644 16.2206 12.7191C15.2403 13.3739 14.0878 13.7232 12.9089 13.7229C11.3292 13.7209 9.81476 13.0925 8.69775 11.9756C7.58074 10.8586 6.95232 9.34419 6.95033 7.76452V7.76366ZM2.08588 29.4076C2.0373 25.0266 2.00804 22.382 2.64548 20.6996C3.18951 19.2638 4.26387 18.263 7.23159 16.434C8.83973 15.6299 10.477 15.4963 12.1532 15.4225C12.4762 15.4083 12.7754 15.4013 13.0683 15.4013C15.0388 15.4013 16.6225 15.7394 18.0459 16.4648C21.1024 18.4051 22.3425 19.4817 22.9502 20.7186C23.6015 22.0443 23.6224 23.8123 23.6605 27.0214C23.6715 27.9493 23.6836 28.965 23.7129 30.109H20.4916V23.6867C20.4916 23.499 20.4171 23.319 20.2844 23.1863C20.1517 23.0536 19.9716 22.979 19.784 22.979C19.5963 22.979 19.4163 23.0536 19.2835 23.1863C19.1508 23.319 19.0763 23.499 19.0763 23.6867V30.109H6.75857V23.6867C6.75568 23.5009 6.67984 23.3237 6.54744 23.1934C6.41504 23.063 6.23671 22.9899 6.05091 22.9899C5.8651 22.9899 5.68673 23.063 5.55433 23.1934C5.42193 23.3237 5.34613 23.5009 5.34324 23.6867V30.109H2.0939C2.09116 29.8711 2.08851 29.6376 2.08588 29.4084V29.4076Z" fill="currentColor"></path></g></defs><!----><use xlink:href="#person"></use></svg>