<svg xmlns:xlink="http://www.w3.org/1999/xlink" xmlns="http://www.w3.org/2000/svg" width="43" height="44" viewBox="0 0 43 44">
<path d="M29.9039 0.894531H12.6908C9.32729 0.89835 6.10261 2.23621 3.72422 4.6146C1.34583 6.99299 0.00796925 10.2177 0.00415039 13.5812V30.7931C0.00796913 34.1567 1.34581 37.3814 3.72419 39.7598C6.10257 42.1383 9.32727 43.4762 12.6908 43.48H29.9039C33.2675 43.4762 36.4922 42.1383 38.8706 39.7598C41.2489 37.3814 42.5868 34.1567 42.5906 30.7931V13.5812C42.5867 10.2177 41.2488 6.99303 38.8704 4.61466C36.4921 2.23628 33.2675 0.898412 29.9039 0.894531ZM32.5867 16.1044C32.9541 24.2961 26.8453 33.4312 16.0306 33.4312C12.8648 33.4341 9.7651 32.5254 7.10186 30.8138C10.1823 31.1838 13.2837 30.3162 15.725 28.4015C14.5097 28.3787 13.3318 27.9766 12.3562 27.2513C11.3807 26.5261 10.6563 25.5141 10.2843 24.3568C11.157 24.5243 12.0564 24.4905 12.914 24.2579C11.5838 23.9879 10.3894 23.2623 9.53657 22.2063C8.68379 21.1502 8.22605 19.8298 8.24219 18.4725C9.05112 18.9224 9.95604 19.1719 10.8812 19.2002C9.64813 18.3764 8.77531 17.1137 8.44042 15.6691C8.10553 14.2244 8.33373 12.7065 9.07858 11.4241C10.541 13.2237 12.3656 14.6956 14.4338 15.7442C16.502 16.7928 18.7677 17.3946 21.0836 17.5107C20.7923 16.2617 20.9211 14.9515 21.45 13.7832C21.9788 12.6148 22.8783 11.6535 24.009 11.0482C25.1396 10.4429 26.4384 10.2274 27.7039 10.4351C28.9695 10.6428 30.1312 11.2621 31.0091 12.197C32.3136 11.9405 33.5645 11.4625 34.7077 10.7837C34.274 12.133 33.3641 13.2783 32.1478 14.0059C33.3026 13.8692 34.4303 13.5602 35.4936 13.0893C34.7113 14.2592 33.7267 15.2803 32.5858 16.1044H32.5867Z" fill="#222222"></path>
</svg>