<svg width="91" height="60" viewBox="0 0 91 60" fill="none" xmlns="http://www.w3.org/2000/svg">
<g clip-path="url(#clip0_1_485)">
<path d="M49.9999 20.9268C49.4122 20.6228 48.7887 20.3934 48.1441 20.2437C49.2441 19.6791 50.1231 18.7622 50.6407 17.6395C51.1585 16.5167 51.285 15.2528 51.0001 14.0497C50.7153 12.8467 50.0355 11.7737 49.0693 11.0023C48.1032 10.2308 46.9063 9.80542 45.67 9.79394C44.4337 9.78246 43.2293 10.1856 42.249 10.939C41.2687 11.6923 40.5691 12.7525 40.2619 13.9501C39.9548 15.1477 40.0579 16.4136 40.5546 17.5458C41.0514 18.678 41.9132 19.6111 43.0024 20.196C42.2512 20.3196 41.523 20.5564 40.8428 20.8984C36.0353 23.8553 36.3872 24.7035 36.4565 33.1437H54.8176C54.5169 24.9898 55.5716 24.4585 49.9999 20.9268ZM41.1502 15.3227C41.1501 14.4386 41.4122 13.5742 41.9034 12.839C42.3945 12.1038 43.0927 11.5308 43.9096 11.1924C44.7264 10.854 45.6252 10.7655 46.4924 10.938C47.3596 11.1104 48.1561 11.5362 48.7812 12.1615C49.4065 12.7867 49.8321 13.5833 50.0046 14.4505C50.177 15.3177 50.0884 16.2166 49.7498 17.0334C49.4113 17.8502 48.8383 18.5483 48.103 19.0393C47.3677 19.5304 46.5034 19.7924 45.6192 19.7922C44.4344 19.7907 43.2986 19.3194 42.4608 18.4817C41.6231 17.6439 41.1517 16.5075 41.1502 15.3227ZM37.5019 31.5557C37.4655 28.27 37.4435 26.2865 37.9216 25.0247C38.3296 23.9479 39.1354 23.1973 41.3612 21.8255C42.5673 21.2224 43.7953 21.1222 45.0524 21.0669C45.2947 21.0562 45.5191 21.051 45.7387 21.051C47.2166 21.051 48.4044 21.3046 49.4719 21.8486C51.7643 23.3038 52.6944 24.1113 53.1502 25.0389C53.6386 26.0332 53.6543 27.3592 53.6829 29.7661C53.6911 30.462 53.7002 31.2237 53.7222 32.0817H51.3062V27.265C51.3062 27.1243 51.2503 26.9893 51.1508 26.8897C51.0513 26.7902 50.9162 26.7343 50.7755 26.7343C50.6347 26.7343 50.4997 26.7902 50.4001 26.8897C50.3006 26.9893 50.2447 27.1243 50.2447 27.265V32.0817H41.0064V27.265C41.0043 27.1257 40.9474 26.9928 40.8481 26.8951C40.7488 26.7973 40.615 26.7424 40.4757 26.7424C40.3363 26.7424 40.2025 26.7973 40.1032 26.8951C40.0039 26.9928 39.9471 27.1257 39.9449 27.265V32.0817H37.5079C37.5059 31.9033 37.5039 31.7276 37.5019 31.5557Z" fill="#020202"/>
</g>
<path d="M10.4629 37.5469H11.7412L15.002 45.6611L18.2559 37.5469H19.541L15.4941 47.5H14.4961L10.4629 37.5469ZM10.0459 37.5469H11.1738L11.3584 43.6172V47.5H10.0459V37.5469ZM18.8232 37.5469H19.9512V47.5H18.6387V43.6172L18.8232 37.5469ZM24.1553 46.7344L26.2129 40.1035H27.5664L24.5996 48.6416C24.5312 48.8239 24.4401 49.0199 24.3262 49.2295C24.2168 49.4437 24.0755 49.6465 23.9023 49.8379C23.7292 50.0293 23.5195 50.1842 23.2734 50.3027C23.0319 50.4258 22.7425 50.4873 22.4053 50.4873C22.305 50.4873 22.1774 50.4736 22.0225 50.4463C21.8675 50.4189 21.7581 50.3962 21.6943 50.3779L21.6875 49.3525C21.724 49.3571 21.7809 49.3617 21.8584 49.3662C21.9404 49.3753 21.9974 49.3799 22.0293 49.3799C22.3164 49.3799 22.5602 49.3411 22.7607 49.2637C22.9613 49.1908 23.1299 49.0654 23.2666 48.8877C23.4079 48.7145 23.5286 48.4753 23.6289 48.1699L24.1553 46.7344ZM22.6445 40.1035L24.5654 45.8457L24.8936 47.1787L23.9844 47.6436L21.2637 40.1035H22.6445ZM36.0566 38.4287L32.7617 47.5H31.415L35.209 37.5469H36.0771L36.0566 38.4287ZM38.8184 47.5L35.5166 38.4287L35.4961 37.5469H36.3643L40.1719 47.5H38.8184ZM38.6475 43.8154V44.8955H33.0557V43.8154H38.6475ZM44.2734 46.5977C44.5742 46.5977 44.8522 46.5361 45.1074 46.4131C45.3626 46.29 45.5723 46.1214 45.7363 45.9072C45.9004 45.6885 45.9938 45.4401 46.0166 45.1621H47.2197C47.1969 45.5996 47.0488 46.0075 46.7754 46.3857C46.5065 46.7594 46.1533 47.0625 45.7158 47.2949C45.2783 47.5228 44.7975 47.6367 44.2734 47.6367C43.7174 47.6367 43.2321 47.5387 42.8174 47.3428C42.4072 47.1468 42.0654 46.8779 41.792 46.5361C41.5231 46.1943 41.3203 45.8024 41.1836 45.3604C41.0514 44.9137 40.9854 44.4421 40.9854 43.9453V43.6582C40.9854 43.1615 41.0514 42.6921 41.1836 42.25C41.3203 41.8034 41.5231 41.4092 41.792 41.0674C42.0654 40.7256 42.4072 40.4567 42.8174 40.2607C43.2321 40.0648 43.7174 39.9668 44.2734 39.9668C44.8522 39.9668 45.3581 40.0853 45.791 40.3223C46.224 40.5547 46.5635 40.8737 46.8096 41.2793C47.0602 41.6803 47.1969 42.1361 47.2197 42.6465H46.0166C45.9938 42.3411 45.9072 42.0654 45.7568 41.8193C45.611 41.5732 45.4105 41.3773 45.1553 41.2314C44.9046 41.0811 44.6107 41.0059 44.2734 41.0059C43.8861 41.0059 43.5602 41.0833 43.2959 41.2383C43.0361 41.3887 42.8288 41.5938 42.6738 41.8535C42.5234 42.1087 42.4141 42.3936 42.3457 42.708C42.2819 43.0179 42.25 43.3346 42.25 43.6582V43.9453C42.25 44.2689 42.2819 44.5879 42.3457 44.9023C42.4095 45.2168 42.5166 45.5016 42.667 45.7568C42.8219 46.012 43.0293 46.2171 43.2891 46.3721C43.5534 46.5225 43.8815 46.5977 44.2734 46.5977ZM51.6016 46.5977C51.9023 46.5977 52.1803 46.5361 52.4355 46.4131C52.6908 46.29 52.9004 46.1214 53.0645 45.9072C53.2285 45.6885 53.3219 45.4401 53.3447 45.1621H54.5479C54.5251 45.5996 54.377 46.0075 54.1035 46.3857C53.8346 46.7594 53.4814 47.0625 53.0439 47.2949C52.6064 47.5228 52.1257 47.6367 51.6016 47.6367C51.0456 47.6367 50.5602 47.5387 50.1455 47.3428C49.7354 47.1468 49.3936 46.8779 49.1201 46.5361C48.8512 46.1943 48.6484 45.8024 48.5117 45.3604C48.3796 44.9137 48.3135 44.4421 48.3135 43.9453V43.6582C48.3135 43.1615 48.3796 42.6921 48.5117 42.25C48.6484 41.8034 48.8512 41.4092 49.1201 41.0674C49.3936 40.7256 49.7354 40.4567 50.1455 40.2607C50.5602 40.0648 51.0456 39.9668 51.6016 39.9668C52.1803 39.9668 52.6862 40.0853 53.1191 40.3223C53.5521 40.5547 53.8916 40.8737 54.1377 41.2793C54.3883 41.6803 54.5251 42.1361 54.5479 42.6465H53.3447C53.3219 42.3411 53.2354 42.0654 53.085 41.8193C52.9391 41.5732 52.7386 41.3773 52.4834 41.2314C52.2327 41.0811 51.9388 41.0059 51.6016 41.0059C51.2142 41.0059 50.8883 41.0833 50.624 41.2383C50.3643 41.3887 50.1569 41.5938 50.002 41.8535C49.8516 42.1087 49.7422 42.3936 49.6738 42.708C49.61 43.0179 49.5781 43.3346 49.5781 43.6582V43.9453C49.5781 44.2689 49.61 44.5879 49.6738 44.9023C49.7376 45.2168 49.8447 45.5016 49.9951 45.7568C50.1501 46.012 50.3574 46.2171 50.6172 46.3721C50.8815 46.5225 51.2096 46.5977 51.6016 46.5977ZM55.6348 43.8838V43.7266C55.6348 43.1934 55.7122 42.6989 55.8672 42.2432C56.0221 41.7829 56.2454 41.3841 56.5371 41.0469C56.8288 40.7051 57.182 40.4408 57.5967 40.2539C58.0114 40.0625 58.4762 39.9668 58.9912 39.9668C59.5107 39.9668 59.9779 40.0625 60.3926 40.2539C60.8118 40.4408 61.1673 40.7051 61.459 41.0469C61.7552 41.3841 61.9808 41.7829 62.1357 42.2432C62.2907 42.6989 62.3682 43.1934 62.3682 43.7266V43.8838C62.3682 44.417 62.2907 44.9115 62.1357 45.3672C61.9808 45.8229 61.7552 46.2217 61.459 46.5635C61.1673 46.9007 60.8141 47.165 60.3994 47.3564C59.9893 47.5433 59.5244 47.6367 59.0049 47.6367C58.4854 47.6367 58.0182 47.5433 57.6035 47.3564C57.1888 47.165 56.8333 46.9007 56.5371 46.5635C56.2454 46.2217 56.0221 45.8229 55.8672 45.3672C55.7122 44.9115 55.6348 44.417 55.6348 43.8838ZM56.8994 43.7266V43.8838C56.8994 44.2529 56.9427 44.6016 57.0293 44.9297C57.1159 45.2533 57.2458 45.5404 57.4189 45.791C57.5967 46.0417 57.8177 46.2399 58.082 46.3857C58.3464 46.527 58.654 46.5977 59.0049 46.5977C59.3512 46.5977 59.6543 46.527 59.9141 46.3857C60.1784 46.2399 60.3971 46.0417 60.5703 45.791C60.7435 45.5404 60.8734 45.2533 60.96 44.9297C61.0511 44.6016 61.0967 44.2529 61.0967 43.8838V43.7266C61.0967 43.362 61.0511 43.0179 60.96 42.6943C60.8734 42.3662 60.7412 42.0768 60.5635 41.8262C60.3903 41.571 60.1715 41.3704 59.9072 41.2246C59.6475 41.0788 59.3421 41.0059 58.9912 41.0059C58.6449 41.0059 58.3395 41.0788 58.0752 41.2246C57.8154 41.3704 57.5967 41.571 57.4189 41.8262C57.2458 42.0768 57.1159 42.3662 57.0293 42.6943C56.9427 43.0179 56.8994 43.362 56.8994 43.7266ZM68.4795 45.791V40.1035H69.751V47.5H68.541L68.4795 45.791ZM68.7188 44.2324L69.2451 44.2188C69.2451 44.7109 69.1927 45.1667 69.0879 45.5859C68.9876 46.0007 68.8236 46.3607 68.5957 46.666C68.3678 46.9714 68.0693 47.2106 67.7002 47.3838C67.3311 47.5524 66.8822 47.6367 66.3535 47.6367C65.9935 47.6367 65.6631 47.5843 65.3623 47.4795C65.0661 47.3747 64.8109 47.2129 64.5967 46.9941C64.3825 46.7754 64.2161 46.4906 64.0977 46.1396C63.9837 45.7887 63.9268 45.3672 63.9268 44.875V40.1035H65.1914V44.8887C65.1914 45.2214 65.2279 45.4971 65.3008 45.7158C65.3783 45.93 65.4808 46.1009 65.6084 46.2285C65.7406 46.3516 65.8864 46.4382 66.0459 46.4883C66.21 46.5384 66.3786 46.5635 66.5518 46.5635C67.0895 46.5635 67.5156 46.4609 67.8301 46.2559C68.1445 46.0462 68.3701 45.766 68.5068 45.415C68.6481 45.0596 68.7188 44.6654 68.7188 44.2324ZM72.9434 41.6826V47.5H71.6787V40.1035H72.875L72.9434 41.6826ZM72.6426 43.5215L72.1162 43.501C72.1208 42.9951 72.196 42.528 72.3418 42.0996C72.4876 41.6667 72.6927 41.2907 72.957 40.9717C73.2214 40.6527 73.5358 40.4066 73.9004 40.2334C74.2695 40.0557 74.6774 39.9668 75.124 39.9668C75.4886 39.9668 75.8167 40.0169 76.1084 40.1172C76.4001 40.2129 76.6484 40.3678 76.8535 40.582C77.0632 40.7962 77.2227 41.0742 77.332 41.416C77.4414 41.7533 77.4961 42.1657 77.4961 42.6533V47.5H76.2246V42.6396C76.2246 42.2523 76.1676 41.9424 76.0537 41.71C75.9398 41.473 75.7734 41.3021 75.5547 41.1973C75.3359 41.0879 75.0671 41.0332 74.748 41.0332C74.4336 41.0332 74.1465 41.0993 73.8867 41.2314C73.6315 41.3636 73.4105 41.5459 73.2236 41.7783C73.0413 42.0107 72.8978 42.2773 72.793 42.5781C72.6927 42.8743 72.6426 43.1888 72.6426 43.5215ZM82.5137 40.1035V41.0742H78.5146V40.1035H82.5137ZM79.8682 38.3057H81.1328V45.668C81.1328 45.9186 81.1715 46.1077 81.249 46.2354C81.3265 46.363 81.4268 46.4473 81.5498 46.4883C81.6729 46.5293 81.805 46.5498 81.9463 46.5498C82.0511 46.5498 82.1605 46.5407 82.2744 46.5225C82.3929 46.4997 82.4818 46.4814 82.541 46.4678L82.5479 47.5C82.4476 47.5319 82.3154 47.5615 82.1514 47.5889C81.9919 47.6208 81.7982 47.6367 81.5703 47.6367C81.2604 47.6367 80.9756 47.5752 80.7158 47.4521C80.4561 47.3291 80.2487 47.124 80.0938 46.8369C79.9434 46.5452 79.8682 46.1533 79.8682 45.6611V38.3057Z" fill="#020202"/>
<g clip-path="url(#clip1_1_485)">
<path d="M62.3281 27.2359L64.5781 29.4859L66.8562 27.2078C66.9423 27.139 67.0465 27.0967 67.1562 27.0859C67.2121 27.0841 67.2678 27.0938 67.3198 27.1143C67.3718 27.1349 67.4191 27.1659 67.4586 27.2054C67.4981 27.245 67.5292 27.2922 67.5497 27.3442C67.5703 27.3962 67.5799 27.4519 67.5781 27.5078C67.5815 27.5637 67.5723 27.6197 67.5512 27.6716C67.5301 27.7236 67.4977 27.7701 67.4562 27.8078L64.8781 30.3859C64.8404 30.4274 64.7938 30.4598 64.7419 30.4809C64.69 30.502 64.634 30.5112 64.5781 30.5078C64.5225 30.5083 64.4674 30.4977 64.4159 30.4768C64.3645 30.4559 64.3176 30.425 64.2781 30.3859L61.7 27.8078C61.6274 27.724 61.5846 27.6185 61.5781 27.5078C61.5763 27.4519 61.5859 27.3962 61.6065 27.3442C61.627 27.2922 61.6581 27.245 61.6976 27.2054C61.7371 27.1659 61.7844 27.1349 61.8364 27.1143C61.8884 27.0938 61.9441 27.0841 62 27.0859C62.0627 27.0829 62.1252 27.0949 62.1823 27.121C62.2394 27.1471 62.2894 27.1865 62.3281 27.2359Z" fill="#020202"/>
</g>
<defs>
<clipPath id="clip0_1_485">
<rect width="20" height="24" fill="white" transform="translate(35.9375 9.5)"/>
</clipPath>
<clipPath id="clip1_1_485">
<rect width="6" height="6" fill="white" transform="translate(61.5781 25.7969)"/>
</clipPath>
</defs>
</svg>
