<svg width="60" height="60" viewBox="0 0 60 60" fill="none" xmlns="http://www.w3.org/2000/svg">
<path d="M22.6094 42.8447H20.0869L20.0732 41.7852H22.3633C22.7415 41.7852 23.0719 41.7214 23.3545 41.5938C23.637 41.4661 23.8558 41.2839 24.0107 41.0469C24.1702 40.8053 24.25 40.5182 24.25 40.1855C24.25 39.821 24.1794 39.5247 24.0381 39.2969C23.9014 39.0645 23.6895 38.8958 23.4023 38.791C23.1198 38.6816 22.7598 38.627 22.3223 38.627H20.3809V47.5H19.0615V37.5469H22.3223C22.8327 37.5469 23.2884 37.5993 23.6895 37.7041C24.0905 37.8044 24.43 37.9639 24.708 38.1826C24.9906 38.3968 25.2048 38.6702 25.3506 39.0029C25.4964 39.3356 25.5693 39.7344 25.5693 40.1992C25.5693 40.6094 25.4645 40.9808 25.2549 41.3135C25.0452 41.6416 24.7536 41.9105 24.3799 42.1201C24.0107 42.3298 23.5778 42.4642 23.0811 42.5234L22.6094 42.8447ZM22.5479 47.5H19.5674L20.3125 46.4268H22.5479C22.9671 46.4268 23.3226 46.3538 23.6143 46.208C23.9105 46.0622 24.1361 45.8571 24.291 45.5928C24.446 45.3239 24.5234 45.0072 24.5234 44.6426C24.5234 44.2734 24.4574 43.9544 24.3252 43.6855C24.193 43.4167 23.9857 43.2093 23.7031 43.0635C23.4206 42.9176 23.056 42.8447 22.6094 42.8447H20.7295L20.7432 41.7852H23.3135L23.5938 42.168C24.0723 42.209 24.4779 42.3457 24.8105 42.5781C25.1432 42.806 25.3962 43.0977 25.5693 43.4531C25.7471 43.8086 25.8359 44.2005 25.8359 44.6289C25.8359 45.2487 25.6992 45.7728 25.4258 46.2012C25.1569 46.625 24.7764 46.9486 24.2842 47.1719C23.792 47.3906 23.2132 47.5 22.5479 47.5ZM31.9541 46.2354V42.4277C31.9541 42.1361 31.8949 41.8831 31.7764 41.6689C31.6624 41.4502 31.4893 41.2816 31.2568 41.1631C31.0244 41.0446 30.7373 40.9854 30.3955 40.9854C30.0765 40.9854 29.7962 41.04 29.5547 41.1494C29.3177 41.2588 29.1309 41.4023 28.9941 41.5801C28.862 41.7578 28.7959 41.9492 28.7959 42.1543H27.5312C27.5312 41.89 27.5996 41.6279 27.7363 41.3682C27.873 41.1084 28.069 40.8737 28.3242 40.6641C28.584 40.4499 28.8939 40.2812 29.2539 40.1582C29.6185 40.0306 30.0241 39.9668 30.4707 39.9668C31.0085 39.9668 31.4824 40.0579 31.8926 40.2402C32.3073 40.4225 32.6309 40.6982 32.8633 41.0674C33.1003 41.432 33.2188 41.89 33.2188 42.4414V45.8867C33.2188 46.1328 33.2393 46.3949 33.2803 46.6729C33.3258 46.9508 33.3919 47.1901 33.4785 47.3906V47.5H32.1592C32.0954 47.3542 32.0452 47.1605 32.0088 46.9189C31.9723 46.6729 31.9541 46.445 31.9541 46.2354ZM32.1729 43.0156L32.1865 43.9043H30.9082C30.5482 43.9043 30.2269 43.9339 29.9443 43.9932C29.6618 44.0479 29.4248 44.1322 29.2334 44.2461C29.042 44.36 28.8962 44.5036 28.7959 44.6768C28.6956 44.8454 28.6455 45.0436 28.6455 45.2715C28.6455 45.5039 28.6979 45.7158 28.8027 45.9072C28.9076 46.0986 29.0648 46.2513 29.2744 46.3652C29.4886 46.4746 29.7507 46.5293 30.0605 46.5293C30.4479 46.5293 30.7897 46.4473 31.0859 46.2832C31.3822 46.1191 31.6169 45.9186 31.79 45.6816C31.9678 45.4447 32.0635 45.2145 32.0771 44.9912L32.6172 45.5996C32.5853 45.791 32.4987 46.0029 32.3574 46.2354C32.2161 46.4678 32.027 46.6911 31.79 46.9053C31.5576 47.1149 31.2796 47.2904 30.9561 47.4316C30.637 47.5684 30.277 47.6367 29.876 47.6367C29.3747 47.6367 28.9349 47.5387 28.5566 47.3428C28.1829 47.1468 27.8913 46.8848 27.6816 46.5566C27.4766 46.224 27.374 45.8525 27.374 45.4424C27.374 45.0459 27.4515 44.6973 27.6064 44.3965C27.7614 44.0911 27.9847 43.8382 28.2764 43.6377C28.568 43.4326 28.9189 43.2777 29.3291 43.1729C29.7393 43.068 30.1973 43.0156 30.7031 43.0156H32.1729ZM40 40.1035H41.1484V47.3428C41.1484 47.9945 41.0163 48.5505 40.752 49.0107C40.4876 49.471 40.1185 49.8197 39.6445 50.0566C39.1751 50.2982 38.6328 50.4189 38.0176 50.4189C37.7624 50.4189 37.4616 50.3779 37.1152 50.2959C36.7734 50.2184 36.4362 50.084 36.1035 49.8926C35.7754 49.7057 35.4997 49.4528 35.2764 49.1338L35.9395 48.3818C36.2493 48.7555 36.5729 49.0153 36.9102 49.1611C37.252 49.307 37.5892 49.3799 37.9219 49.3799C38.3229 49.3799 38.6693 49.3047 38.9609 49.1543C39.2526 49.0039 39.4782 48.7806 39.6377 48.4844C39.8018 48.1927 39.8838 47.8327 39.8838 47.4043V41.7305L40 40.1035ZM34.9072 43.8838V43.7402C34.9072 43.1751 34.9733 42.6624 35.1055 42.2021C35.2422 41.7373 35.4359 41.3385 35.6865 41.0059C35.9417 40.6732 36.2493 40.418 36.6094 40.2402C36.9694 40.0579 37.375 39.9668 37.8262 39.9668C38.291 39.9668 38.6966 40.0488 39.043 40.2129C39.3939 40.3724 39.6901 40.6071 39.9316 40.917C40.1777 41.2223 40.3714 41.5915 40.5127 42.0244C40.654 42.4574 40.752 42.9473 40.8066 43.4941V44.123C40.7565 44.6654 40.6585 45.153 40.5127 45.5859C40.3714 46.0189 40.1777 46.388 39.9316 46.6934C39.6901 46.9987 39.3939 47.2334 39.043 47.3975C38.6921 47.557 38.2819 47.6367 37.8125 47.6367C37.3704 47.6367 36.9694 47.5433 36.6094 47.3564C36.2539 47.1696 35.9486 46.9076 35.6934 46.5703C35.4382 46.2331 35.2422 45.8366 35.1055 45.3809C34.9733 44.9206 34.9072 44.4215 34.9072 43.8838ZM36.1719 43.7402V43.8838C36.1719 44.2529 36.2083 44.5993 36.2812 44.9229C36.3587 45.2464 36.4749 45.5312 36.6299 45.7773C36.7894 46.0234 36.9922 46.2171 37.2383 46.3584C37.4844 46.4951 37.7783 46.5635 38.1201 46.5635C38.5394 46.5635 38.8857 46.4746 39.1592 46.2969C39.4326 46.1191 39.6491 45.8844 39.8086 45.5928C39.9727 45.3011 40.1003 44.9844 40.1914 44.6426V42.9951C40.1413 42.7445 40.0638 42.5029 39.959 42.2705C39.8587 42.0335 39.7266 41.8239 39.5625 41.6416C39.403 41.4548 39.2048 41.3066 38.9678 41.1973C38.7308 41.0879 38.4528 41.0332 38.1338 41.0332C37.7874 41.0332 37.4889 41.1061 37.2383 41.252C36.9922 41.3932 36.7894 41.5892 36.6299 41.8398C36.4749 42.0859 36.3587 42.373 36.2812 42.7012C36.2083 43.0247 36.1719 43.3711 36.1719 43.7402Z" fill="#020202"/>
<g clip-path="url(#clip0_1_498)">
<path d="M38.4205 32.9934H20.8872C20.5682 32.9932 20.2623 32.867 20.0367 32.6425C19.8111 32.418 19.6843 32.1135 19.6841 31.7961V15.5647C19.6843 15.2472 19.8111 14.9428 20.0367 14.7183C20.2623 14.4938 20.5682 14.3676 20.8872 14.3674H38.4205C38.7395 14.3676 39.0454 14.4938 39.2709 14.7183C39.4965 14.9428 39.6233 15.2472 39.6236 15.5647V31.7965C39.6232 32.114 39.4963 32.4183 39.2707 32.6427C39.0452 32.8671 38.7394 32.9932 38.4205 32.9934ZM20.8872 15.4205C20.8486 15.4205 20.8116 15.4358 20.7844 15.4629C20.7571 15.4901 20.7418 15.5269 20.7418 15.5652V31.7965C20.7418 31.8349 20.7571 31.8718 20.7844 31.8989C20.8116 31.9261 20.8486 31.9413 20.8872 31.9413H38.4205C38.459 31.9413 38.496 31.9261 38.5233 31.8989C38.5505 31.8718 38.5659 31.8349 38.5659 31.7965V15.5647C38.5659 15.5263 38.5505 15.4895 38.5233 15.4624C38.496 15.4352 38.459 15.42 38.4205 15.42L20.8872 15.4205Z" fill="black"/>
<path d="M34.4056 17.7949C34.2653 17.7949 34.1308 17.7395 34.0316 17.6407C33.9324 17.5421 33.8767 17.4082 33.8767 17.2686V15.2253C33.8767 14.1204 33.4357 13.0608 32.6506 12.2795C31.8656 11.4982 30.8009 11.0593 29.6907 11.0593C28.5805 11.0593 27.5158 11.4982 26.7307 12.2795C25.9457 13.0608 25.5047 14.1204 25.5047 15.2253V17.2686C25.5047 17.4082 25.4489 17.5421 25.3498 17.6407C25.2506 17.7395 25.1161 17.7949 24.9758 17.7949C24.8355 17.7949 24.701 17.7395 24.6019 17.6407C24.5027 17.5421 24.447 17.4082 24.447 17.2686V15.2253C24.447 13.8412 24.9994 12.5138 25.9828 11.5352C26.9662 10.5565 28.3 10.0067 29.6907 10.0067C31.0814 10.0067 32.4152 10.5565 33.3986 11.5352C34.3819 12.5138 34.9344 13.8412 34.9344 15.2253V17.2686C34.9344 17.4082 34.8787 17.5421 34.7795 17.6407C34.6803 17.7395 34.5458 17.7949 34.4056 17.7949Z" fill="black"/>
</g>
<path d="M33.1377 23.7305V25.248C33.1377 26.0638 33.0648 26.752 32.9189 27.3125C32.7731 27.873 32.5635 28.3242 32.29 28.666C32.0166 29.0078 31.6862 29.2562 31.2988 29.4111C30.916 29.5615 30.4831 29.6367 30 29.6367C29.6172 29.6367 29.264 29.5889 28.9404 29.4932C28.6169 29.3975 28.3252 29.2448 28.0654 29.0352C27.8102 28.821 27.5915 28.543 27.4092 28.2012C27.2269 27.8594 27.0879 27.4447 26.9922 26.957C26.8965 26.4694 26.8486 25.8997 26.8486 25.248V23.7305C26.8486 22.9147 26.9215 22.2311 27.0674 21.6797C27.2178 21.1283 27.4297 20.6862 27.7031 20.3535C27.9766 20.0163 28.3047 19.7747 28.6875 19.6289C29.0749 19.4831 29.5078 19.4102 29.9863 19.4102C30.3737 19.4102 30.7292 19.458 31.0527 19.5537C31.3809 19.6449 31.6725 19.793 31.9277 19.998C32.1829 20.1986 32.3994 20.4674 32.5771 20.8047C32.7594 21.1374 32.8984 21.5452 32.9941 22.0283C33.0898 22.5114 33.1377 23.0788 33.1377 23.7305ZM31.8662 25.4531V23.5186C31.8662 23.0719 31.8389 22.68 31.7842 22.3428C31.734 22.001 31.6589 21.7093 31.5586 21.4678C31.4583 21.2262 31.3307 21.0303 31.1758 20.8799C31.0254 20.7295 30.8499 20.6201 30.6494 20.5518C30.4535 20.4788 30.2324 20.4424 29.9863 20.4424C29.6855 20.4424 29.4189 20.4993 29.1865 20.6133C28.9541 20.7227 28.7581 20.8981 28.5986 21.1396C28.4437 21.3812 28.3252 21.6979 28.2432 22.0898C28.1611 22.4818 28.1201 22.958 28.1201 23.5186V25.4531C28.1201 25.8997 28.1452 26.2939 28.1953 26.6357C28.25 26.9775 28.3298 27.2738 28.4346 27.5244C28.5394 27.7705 28.667 27.9733 28.8174 28.1328C28.9678 28.2923 29.141 28.4108 29.3369 28.4883C29.5374 28.5612 29.7585 28.5977 30 28.5977C30.3099 28.5977 30.5811 28.5384 30.8135 28.4199C31.0459 28.3014 31.2396 28.1169 31.3945 27.8662C31.554 27.611 31.6725 27.2852 31.75 26.8887C31.8275 26.4876 31.8662 26.0091 31.8662 25.4531Z" fill="#020202"/>
<defs>
<clipPath id="clip0_1_498">
<rect width="21" height="24" fill="white" transform="translate(19.5 9.5)"/>
</clipPath>
</defs>
</svg>
