<svg width="88" height="60" viewBox="0 0 88 60" fill="none" xmlns="http://www.w3.org/2000/svg">
<g clip-path="url(#clip0_1_477)">
<path d="M55.5813 10.3766H32.3813C31.829 10.3766 31.3813 10.8243 31.3813 11.3766V31.5304C31.3813 32.0827 31.829 32.5304 32.3813 32.5304H55.5813C56.1335 32.5304 56.5813 32.0827 56.5813 31.5304V11.3766C56.5813 10.8243 56.1335 10.3766 55.5813 10.3766Z" stroke="#020202" stroke-width="1.2" stroke-dasharray="1.6 1.6"/>
<path fill-rule="evenodd" clip-rule="evenodd" d="M43.3369 19.5403C43.5428 19.6514 44.0889 19.7632 44.5009 19.8477C45.0129 19.9526 45.6286 20.0786 46.2392 20.2871C45.5017 19.7886 44.5649 19.4876 43.7159 19.4876C43.4996 19.4876 43.3889 19.5182 43.3369 19.5403ZM41.4769 23.3462C42.0129 23.8356 42.9835 24.483 44.3673 24.483C44.7823 24.483 45.0135 24.393 45.1005 24.3318C44.8957 24.2292 44.3733 24.1317 43.9777 24.0581C43.2497 23.9223 42.3145 23.7482 41.4769 23.3462ZM43.5639 28.7706H44.7984V27.2892L45.1271 27.2446C47.1773 26.9665 48.3062 25.7627 48.3062 23.855C48.3062 21.6316 46.4395 21.0652 44.3601 20.6389C43.3083 20.4235 42.5486 20.2678 42.5486 19.5842C42.5486 19.2477 42.7003 18.6828 43.7162 18.6828C44.7299 18.6828 45.8101 19.0326 46.6761 19.6302L47.9077 17.8831C47.1191 17.2817 46.1841 16.8982 45.1233 16.742L44.7984 16.6941V15.1503H43.5639V16.6801L43.2361 16.7256C40.9357 17.0443 40.1193 18.6527 40.1193 19.9334C40.1193 22.5213 42.424 22.9508 44.1069 23.2646C45.1043 23.4506 45.8921 23.5973 45.8921 24.2873C45.8921 24.5222 45.7821 25.2881 44.3674 25.2881C42.8413 25.2881 41.7441 24.613 41.0982 24.0556L39.9042 25.8822C40.8017 26.6642 41.891 27.1102 43.2228 27.2432L43.5639 27.2773V28.7706ZM45.5505 29.5766H42.8121V28.0048C41.3421 27.7975 40.1407 27.2205 39.1477 26.2468L38.9045 26.0082L40.8716 22.9992C40.0109 22.4093 39.3675 21.4754 39.3675 19.9342C39.3675 18.2745 40.4359 16.4524 42.8121 15.9826V14.3458H45.5505V15.9998C46.7467 16.229 47.7951 16.7307 48.671 17.4946L48.952 17.7396L46.9519 20.5763C48.0941 21.1234 49.0584 22.069 49.0584 23.8558C49.0584 26.0798 47.7853 27.5718 45.5505 27.9912V29.5766Z" fill="#020202"/>
</g>
<path d="M23.4453 44.335H24.7578C24.6895 44.9639 24.5094 45.5267 24.2178 46.0234C23.9261 46.5202 23.5137 46.9144 22.9805 47.2061C22.4473 47.4932 21.7819 47.6367 20.9844 47.6367C20.401 47.6367 19.8701 47.5273 19.3916 47.3086C18.9176 47.0898 18.5098 46.7799 18.168 46.3789C17.8262 45.9733 17.5618 45.488 17.375 44.9229C17.1927 44.3532 17.1016 43.7197 17.1016 43.0225V42.0312C17.1016 41.334 17.1927 40.7028 17.375 40.1377C17.5618 39.568 17.8285 39.0804 18.1748 38.6748C18.5257 38.2692 18.9473 37.957 19.4395 37.7383C19.9316 37.5195 20.4854 37.4102 21.1006 37.4102C21.8525 37.4102 22.4883 37.5514 23.0078 37.834C23.5273 38.1165 23.9307 38.5085 24.2178 39.0098C24.5094 39.5065 24.6895 40.083 24.7578 40.7393H23.4453C23.3815 40.2744 23.263 39.8757 23.0898 39.543C22.9167 39.2057 22.6706 38.946 22.3516 38.7637C22.0326 38.5814 21.6156 38.4902 21.1006 38.4902C20.6585 38.4902 20.2689 38.5745 19.9316 38.7432C19.599 38.9118 19.3187 39.151 19.0908 39.4609C18.8675 39.7708 18.6989 40.1423 18.585 40.5752C18.471 41.0081 18.4141 41.4889 18.4141 42.0176V43.0225C18.4141 43.5101 18.4642 43.9681 18.5645 44.3965C18.6693 44.8249 18.8265 45.2008 19.0361 45.5244C19.2458 45.848 19.5124 46.1032 19.8359 46.29C20.1595 46.4723 20.5423 46.5635 20.9844 46.5635C21.5449 46.5635 21.9915 46.4746 22.3242 46.2969C22.6569 46.1191 22.9076 45.8639 23.0762 45.5312C23.2493 45.1986 23.3724 44.7998 23.4453 44.335ZM26.0293 43.8838V43.7266C26.0293 43.1934 26.1068 42.6989 26.2617 42.2432C26.4167 41.7829 26.64 41.3841 26.9316 41.0469C27.2233 40.7051 27.5765 40.4408 27.9912 40.2539C28.4059 40.0625 28.8708 39.9668 29.3857 39.9668C29.9053 39.9668 30.3724 40.0625 30.7871 40.2539C31.2064 40.4408 31.5618 40.7051 31.8535 41.0469C32.1497 41.3841 32.3753 41.7829 32.5303 42.2432C32.6852 42.6989 32.7627 43.1934 32.7627 43.7266V43.8838C32.7627 44.417 32.6852 44.9115 32.5303 45.3672C32.3753 45.8229 32.1497 46.2217 31.8535 46.5635C31.5618 46.9007 31.2087 47.165 30.7939 47.3564C30.3838 47.5433 29.9189 47.6367 29.3994 47.6367C28.8799 47.6367 28.4128 47.5433 27.998 47.3564C27.5833 47.165 27.2279 46.9007 26.9316 46.5635C26.64 46.2217 26.4167 45.8229 26.2617 45.3672C26.1068 44.9115 26.0293 44.417 26.0293 43.8838ZM27.2939 43.7266V43.8838C27.2939 44.2529 27.3372 44.6016 27.4238 44.9297C27.5104 45.2533 27.6403 45.5404 27.8135 45.791C27.9912 46.0417 28.2122 46.2399 28.4766 46.3857C28.7409 46.527 29.0485 46.5977 29.3994 46.5977C29.7458 46.5977 30.0488 46.527 30.3086 46.3857C30.5729 46.2399 30.7917 46.0417 30.9648 45.791C31.138 45.5404 31.2679 45.2533 31.3545 44.9297C31.4456 44.6016 31.4912 44.2529 31.4912 43.8838V43.7266C31.4912 43.362 31.4456 43.0179 31.3545 42.6943C31.2679 42.3662 31.1357 42.0768 30.958 41.8262C30.7848 41.571 30.5661 41.3704 30.3018 41.2246C30.042 41.0788 29.7367 41.0059 29.3857 41.0059C29.0394 41.0059 28.734 41.0788 28.4697 41.2246C28.21 41.3704 27.9912 41.571 27.8135 41.8262C27.6403 42.0768 27.5104 42.3662 27.4238 42.6943C27.3372 43.0179 27.2939 43.362 27.2939 43.7266ZM38.874 45.791V40.1035H40.1455V47.5H38.9355L38.874 45.791ZM39.1133 44.2324L39.6396 44.2188C39.6396 44.7109 39.5872 45.1667 39.4824 45.5859C39.3822 46.0007 39.2181 46.3607 38.9902 46.666C38.7624 46.9714 38.4639 47.2106 38.0947 47.3838C37.7256 47.5524 37.2767 47.6367 36.748 47.6367C36.388 47.6367 36.0576 47.5843 35.7568 47.4795C35.4606 47.3747 35.2054 47.2129 34.9912 46.9941C34.777 46.7754 34.6107 46.4906 34.4922 46.1396C34.3783 45.7887 34.3213 45.3672 34.3213 44.875V40.1035H35.5859V44.8887C35.5859 45.2214 35.6224 45.4971 35.6953 45.7158C35.7728 45.93 35.8753 46.1009 36.0029 46.2285C36.1351 46.3516 36.2809 46.4382 36.4404 46.4883C36.6045 46.5384 36.7731 46.5635 36.9463 46.5635C37.484 46.5635 37.9102 46.4609 38.2246 46.2559C38.5391 46.0462 38.7646 45.766 38.9014 45.415C39.0426 45.0596 39.1133 44.6654 39.1133 44.2324ZM43.3379 41.5254V50.3438H42.0664V40.1035H43.2285L43.3379 41.5254ZM48.3213 43.7402V43.8838C48.3213 44.4215 48.2575 44.9206 48.1299 45.3809C48.0023 45.8366 47.8154 46.2331 47.5693 46.5703C47.3278 46.9076 47.0293 47.1696 46.6738 47.3564C46.3184 47.5433 45.9105 47.6367 45.4502 47.6367C44.9808 47.6367 44.5661 47.5592 44.2061 47.4043C43.846 47.2493 43.5407 47.0238 43.29 46.7275C43.0394 46.4313 42.8389 46.0758 42.6885 45.6611C42.5426 45.2464 42.4424 44.7793 42.3877 44.2598V43.4941C42.4424 42.9473 42.5449 42.4574 42.6953 42.0244C42.8457 41.5915 43.0439 41.2223 43.29 40.917C43.5407 40.6071 43.8438 40.3724 44.1992 40.2129C44.5547 40.0488 44.9648 39.9668 45.4297 39.9668C45.8945 39.9668 46.307 40.0579 46.667 40.2402C47.027 40.418 47.3301 40.6732 47.5762 41.0059C47.8223 41.3385 48.0068 41.7373 48.1299 42.2021C48.2575 42.6624 48.3213 43.1751 48.3213 43.7402ZM47.0498 43.8838V43.7402C47.0498 43.3711 47.0111 43.0247 46.9336 42.7012C46.8561 42.373 46.7354 42.0859 46.5713 41.8398C46.4118 41.5892 46.2067 41.3932 45.9561 41.252C45.7054 41.1061 45.4069 41.0332 45.0605 41.0332C44.7415 41.0332 44.4635 41.0879 44.2266 41.1973C43.9941 41.3066 43.7959 41.4548 43.6318 41.6416C43.4678 41.8239 43.3333 42.0335 43.2285 42.2705C43.1283 42.5029 43.0531 42.7445 43.0029 42.9951V44.7656C43.0941 45.0846 43.2217 45.3854 43.3857 45.668C43.5498 45.946 43.7686 46.1715 44.042 46.3447C44.3154 46.5133 44.6595 46.5977 45.0742 46.5977C45.416 46.5977 45.71 46.527 45.9561 46.3857C46.2067 46.2399 46.4118 46.0417 46.5713 45.791C46.7354 45.5404 46.8561 45.2533 46.9336 44.9297C47.0111 44.6016 47.0498 44.2529 47.0498 43.8838ZM49.5996 43.8838V43.7266C49.5996 43.1934 49.6771 42.6989 49.832 42.2432C49.987 41.7829 50.2103 41.3841 50.502 41.0469C50.7936 40.7051 51.1468 40.4408 51.5615 40.2539C51.9762 40.0625 52.4411 39.9668 52.9561 39.9668C53.4756 39.9668 53.9427 40.0625 54.3574 40.2539C54.7767 40.4408 55.1322 40.7051 55.4238 41.0469C55.7201 41.3841 55.9456 41.7829 56.1006 42.2432C56.2555 42.6989 56.333 43.1934 56.333 43.7266V43.8838C56.333 44.417 56.2555 44.9115 56.1006 45.3672C55.9456 45.8229 55.7201 46.2217 55.4238 46.5635C55.1322 46.9007 54.779 47.165 54.3643 47.3564C53.9541 47.5433 53.4893 47.6367 52.9697 47.6367C52.4502 47.6367 51.9831 47.5433 51.5684 47.3564C51.1536 47.165 50.7982 46.9007 50.502 46.5635C50.2103 46.2217 49.987 45.8229 49.832 45.3672C49.6771 44.9115 49.5996 44.417 49.5996 43.8838ZM50.8643 43.7266V43.8838C50.8643 44.2529 50.9076 44.6016 50.9941 44.9297C51.0807 45.2533 51.2106 45.5404 51.3838 45.791C51.5615 46.0417 51.7826 46.2399 52.0469 46.3857C52.3112 46.527 52.6188 46.5977 52.9697 46.5977C53.3161 46.5977 53.6191 46.527 53.8789 46.3857C54.1432 46.2399 54.362 46.0417 54.5352 45.791C54.7083 45.5404 54.8382 45.2533 54.9248 44.9297C55.016 44.6016 55.0615 44.2529 55.0615 43.8838V43.7266C55.0615 43.362 55.016 43.0179 54.9248 42.6943C54.8382 42.3662 54.7061 42.0768 54.5283 41.8262C54.3551 41.571 54.1364 41.3704 53.8721 41.2246C53.6123 41.0788 53.307 41.0059 52.9561 41.0059C52.6097 41.0059 52.3044 41.0788 52.04 41.2246C51.7803 41.3704 51.5615 41.571 51.3838 41.8262C51.2106 42.0768 51.0807 42.3662 50.9941 42.6943C50.9076 43.0179 50.8643 43.362 50.8643 43.7266ZM59.1836 41.6826V47.5H57.9189V40.1035H59.1152L59.1836 41.6826ZM58.8828 43.5215L58.3564 43.501C58.361 42.9951 58.4362 42.528 58.582 42.0996C58.7279 41.6667 58.9329 41.2907 59.1973 40.9717C59.4616 40.6527 59.776 40.4066 60.1406 40.2334C60.5098 40.0557 60.9176 39.9668 61.3643 39.9668C61.7288 39.9668 62.057 40.0169 62.3486 40.1172C62.6403 40.2129 62.8887 40.3678 63.0938 40.582C63.3034 40.7962 63.4629 41.0742 63.5723 41.416C63.6816 41.7533 63.7363 42.1657 63.7363 42.6533V47.5H62.4648V42.6396C62.4648 42.2523 62.4079 41.9424 62.2939 41.71C62.18 41.473 62.0137 41.3021 61.7949 41.1973C61.5762 41.0879 61.3073 41.0332 60.9883 41.0332C60.6738 41.0332 60.3867 41.0993 60.127 41.2314C59.8717 41.3636 59.6507 41.5459 59.4639 41.7783C59.2816 42.0107 59.138 42.2773 59.0332 42.5781C58.9329 42.8743 58.8828 43.1888 58.8828 43.5215ZM69.9639 45.5381C69.9639 45.3558 69.9229 45.1872 69.8408 45.0322C69.7633 44.8727 69.6016 44.7292 69.3555 44.6016C69.1139 44.4694 68.7493 44.3555 68.2617 44.2598C67.8516 44.1732 67.4801 44.0706 67.1475 43.9521C66.8193 43.8337 66.5391 43.6901 66.3066 43.5215C66.0788 43.3529 65.9033 43.1546 65.7803 42.9268C65.6572 42.6989 65.5957 42.4323 65.5957 42.127C65.5957 41.8353 65.6595 41.5596 65.7871 41.2998C65.9193 41.04 66.1038 40.8099 66.3408 40.6094C66.5824 40.4089 66.8717 40.2516 67.209 40.1377C67.5462 40.0238 67.9222 39.9668 68.3369 39.9668C68.9294 39.9668 69.4352 40.0716 69.8545 40.2812C70.2738 40.4909 70.5951 40.7712 70.8184 41.1221C71.0417 41.4684 71.1533 41.8535 71.1533 42.2773H69.8887C69.8887 42.0723 69.8271 41.874 69.7041 41.6826C69.5856 41.4867 69.4102 41.3249 69.1777 41.1973C68.9499 41.0697 68.6696 41.0059 68.3369 41.0059C67.986 41.0059 67.7012 41.0605 67.4824 41.1699C67.2682 41.2747 67.111 41.4092 67.0107 41.5732C66.915 41.7373 66.8672 41.9105 66.8672 42.0928C66.8672 42.2295 66.89 42.3525 66.9355 42.4619C66.9857 42.5667 67.0723 42.6647 67.1953 42.7559C67.3184 42.8424 67.4915 42.9245 67.7148 43.002C67.9382 43.0794 68.223 43.1569 68.5693 43.2344C69.1755 43.3711 69.6745 43.5352 70.0664 43.7266C70.4583 43.918 70.75 44.1527 70.9414 44.4307C71.1328 44.7087 71.2285 45.0459 71.2285 45.4424C71.2285 45.766 71.1602 46.0622 71.0234 46.3311C70.8913 46.5999 70.6976 46.8324 70.4424 47.0283C70.1917 47.2197 69.891 47.3701 69.54 47.4795C69.1937 47.5843 68.804 47.6367 68.3711 47.6367C67.7194 47.6367 67.168 47.5205 66.7168 47.2881C66.2656 47.0557 65.9238 46.7549 65.6914 46.3857C65.459 46.0166 65.3428 45.627 65.3428 45.2168H66.6143C66.6325 45.5632 66.7327 45.8389 66.915 46.0439C67.0973 46.2445 67.3206 46.388 67.585 46.4746C67.8493 46.5566 68.1113 46.5977 68.3711 46.5977C68.7174 46.5977 69.0068 46.5521 69.2393 46.4609C69.4762 46.3698 69.6562 46.2445 69.7793 46.085C69.9023 45.9255 69.9639 45.7432 69.9639 45.5381Z" fill="#020202"/>
<defs>
<clipPath id="clip0_1_477">
<rect width="27" height="24" fill="white" transform="translate(30.7812 9.5)"/>
</clipPath>
</defs>
</svg>
