<svg xmlns="http://www.w3.org/2000/svg" xmlns:xlink="http://www.w3.org/1999/xlink" width="500" zoomAndPan="magnify" viewBox="0 0 375 374.999991" height="500" preserveAspectRatio="xMidYMid meet" version="1.0"><defs><g/><clipPath id="cd6ab234a2"><path d="M 112.5 78.757812 L 262.5 78.757812 L 262.5 228.757812 L 112.5 228.757812 Z M 112.5 78.757812 " clip-rule="nonzero"/></clipPath></defs><g clip-path="url(#cd6ab234a2)"><path fill="#000000" d="M 187.46875 78.738281 C 228.882812 78.738281 262.457031 112.308594 262.457031 153.726562 C 262.457031 195.140625 228.882812 228.714844 187.46875 228.714844 C 146.054688 228.714844 112.480469 195.140625 112.480469 153.726562 C 112.480469 112.308594 146.054688 78.738281 187.46875 78.738281 " fill-opacity="1" fill-rule="evenodd"/></g><path fill="#ffffff" d="M 156.703125 168.160156 L 218.234375 168.160156 L 226.972656 119.125 L 147.96875 119.125 Z M 221.636719 176.289062 L 153.304688 176.289062 C 151.367188 176.289062 149.648438 174.894531 149.304688 172.921875 L 139.152344 115.949219 C 139.089844 115.664062 139.058594 115.367188 139.058594 115.0625 C 139.058594 112.816406 140.875 111 143.121094 111 L 231.820312 111 C 232.050781 111 232.28125 111.019531 232.519531 111.0625 C 234.726562 111.449219 236.207031 113.554688 235.820312 115.761719 L 225.664062 172.773438 C 225.398438 174.757812 223.695312 176.289062 221.636719 176.289062 " fill-opacity="1" fill-rule="evenodd"/><path fill="#ffffff" d="M 173.261719 201.296875 C 177.070312 201.296875 180.160156 204.382812 180.160156 208.195312 C 180.160156 212.003906 177.070312 215.09375 173.261719 215.09375 C 169.453125 215.09375 166.363281 212.003906 166.363281 208.195312 C 166.363281 204.382812 169.453125 201.296875 173.261719 201.296875 " fill-opacity="1" fill-rule="evenodd"/><path fill="#ffffff" d="M 201.675781 201.296875 C 205.492188 201.296875 208.574219 204.382812 208.574219 208.195312 C 208.574219 212.003906 205.488281 215.09375 201.675781 215.09375 C 197.867188 215.09375 194.777344 212.003906 194.777344 208.195312 C 194.777344 204.382812 197.867188 201.296875 201.675781 201.296875 " fill-opacity="1" fill-rule="evenodd"/><path fill="#ffffff" d="M 158.191406 186.167969 L 221.871094 186.167969 C 223.320312 186.167969 224.621094 185.582031 225.5625 184.640625 L 225.578125 184.628906 C 226.519531 183.6875 227.101562 182.382812 227.101562 180.9375 C 227.101562 179.496094 226.515625 178.191406 225.578125 177.25 L 225.5625 177.234375 C 224.625 176.296875 223.316406 175.710938 221.871094 175.710938 L 158.191406 175.710938 L 158.191406 168.738281 L 221.871094 168.738281 C 225.210938 168.738281 228.25 170.105469 230.464844 172.308594 L 230.492188 172.332031 C 232.703125 174.546875 234.074219 177.597656 234.074219 180.9375 C 234.074219 184.273438 232.707031 187.316406 230.503906 189.535156 L 230.480469 189.558594 C 228.265625 191.769531 225.214844 193.136719 221.871094 193.136719 L 157.867188 193.136719 C 155.949219 193.136719 154.378906 191.570312 154.378906 189.652344 C 154.378906 187.734375 155.949219 186.167969 157.867188 186.167969 L 158.191406 186.167969 " fill-opacity="1" fill-rule="evenodd"/><path fill="#ffffff" d="M 223.003906 106.191406 C 220.757812 106.191406 218.9375 104.371094 218.9375 102.128906 C 218.9375 99.882812 220.757812 98.066406 223.003906 98.066406 L 246.527344 98.066406 C 248.769531 98.066406 250.589844 99.882812 250.589844 102.128906 C 250.589844 104.371094 248.769531 106.191406 246.527344 106.191406 L 223.003906 106.191406 " fill-opacity="1" fill-rule="evenodd"/><path fill="#ffffff" d="M 183.40625 115.0625 C 183.40625 112.816406 185.226562 111 187.472656 111 C 189.714844 111 191.535156 112.820312 191.535156 115.0625 L 191.535156 172.226562 C 191.535156 174.46875 189.714844 176.289062 187.472656 176.289062 C 185.226562 176.289062 183.40625 174.46875 183.40625 172.226562 L 183.40625 115.0625 " fill-opacity="1" fill-rule="evenodd"/><path fill="#ffffff" d="M 148.210938 147.707031 C 145.96875 147.707031 144.148438 145.886719 144.148438 143.644531 C 144.148438 141.398438 145.96875 139.582031 148.210938 139.582031 L 226.730469 139.582031 C 228.972656 139.582031 230.792969 141.398438 230.792969 143.644531 C 230.792969 145.886719 228.972656 147.707031 226.726562 147.707031 L 148.210938 147.707031 " fill-opacity="1" fill-rule="evenodd"/><g fill="#000000" fill-opacity="1"><g transform="translate(109.063408, 269.603346)"><g><path d="M 9.375 -19.125 L 9.375 -13.75 L 20.171875 -13.75 L 20.171875 -8.390625 L 9.375 -8.390625 L 9.375 0 L 2.453125 0 L 2.453125 -24.484375 L 21.640625 -24.484375 L 21.640625 -19.125 Z M 9.375 -19.125 "/></g></g></g><g fill="#000000" fill-opacity="1"><g transform="translate(131.513293, 269.603346)"><g><path d="M 2.140625 -25.953125 L 8.78125 -25.953125 L 8.78125 0 L 2.140625 0 Z M 2.140625 -25.953125 "/></g></g></g><g fill="#000000" fill-opacity="1"><g transform="translate(142.458491, 269.603346)"><g><path d="M 21.5 -9.4375 C 21.5 -9.394531 21.46875 -8.847656 21.40625 -7.796875 L 7.625 -7.796875 C 7.90625 -6.816406 8.445312 -6.0625 9.25 -5.53125 C 10.050781 -5.007812 11.0625 -4.75 12.28125 -4.75 C 13.1875 -4.75 13.96875 -4.878906 14.625 -5.140625 C 15.289062 -5.398438 15.960938 -5.820312 16.640625 -6.40625 L 20.140625 -2.765625 C 18.296875 -0.710938 15.601562 0.3125 12.0625 0.3125 C 9.851562 0.3125 7.90625 -0.101562 6.21875 -0.9375 C 4.539062 -1.78125 3.238281 -2.945312 2.3125 -4.4375 C 1.394531 -5.925781 0.9375 -7.617188 0.9375 -9.515625 C 0.9375 -11.378906 1.382812 -13.050781 2.28125 -14.53125 C 3.1875 -16.007812 4.429688 -17.164062 6.015625 -18 C 7.597656 -18.84375 9.378906 -19.265625 11.359375 -19.265625 C 13.253906 -19.265625 14.96875 -18.875 16.5 -18.09375 C 18.039062 -17.3125 19.257812 -16.179688 20.15625 -14.703125 C 21.050781 -13.222656 21.5 -11.46875 21.5 -9.4375 Z M 11.40625 -14.546875 C 10.375 -14.546875 9.515625 -14.253906 8.828125 -13.671875 C 8.140625 -13.085938 7.703125 -12.296875 7.515625 -11.296875 L 15.28125 -11.296875 C 15.09375 -12.296875 14.65625 -13.085938 13.96875 -13.671875 C 13.28125 -14.253906 12.425781 -14.546875 11.40625 -14.546875 Z M 11.40625 -14.546875 "/></g></g></g><g fill="#000000" fill-opacity="1"><g transform="translate(164.908376, 269.603346)"><g><path d="M 14.15625 0 L 10.765625 -4.96875 L 7.140625 0 L -0.0625 0 L 7.140625 -9.46875 L 0.140625 -18.953125 L 7.625 -18.953125 L 10.984375 -14.15625 L 14.484375 -18.953125 L 21.5 -18.953125 L 14.515625 -9.71875 L 21.75 0 Z M 14.15625 0 "/></g></g></g><g fill="#000000" fill-opacity="1"><g transform="translate(186.553981, 269.603346)"><g><path d="M 11.890625 -8.875 L 9.296875 -6.125 L 9.296875 0 L 2.453125 0 L 2.453125 -24.484375 L 9.296875 -24.484375 L 9.296875 -14.296875 L 18.78125 -24.484375 L 26.40625 -24.484375 L 16.40625 -13.640625 L 26.921875 0 L 18.890625 0 Z M 11.890625 -8.875 "/></g></g></g><g fill="#000000" fill-opacity="1"><g transform="translate(212.850419, 269.603346)"><g><path d="M 10.203125 -19.265625 C 13.359375 -19.265625 15.757812 -18.546875 17.40625 -17.109375 C 19.0625 -15.679688 19.890625 -13.488281 19.890625 -10.53125 L 19.890625 0 L 13.703125 0 L 13.703125 -2.453125 C 12.753906 -0.609375 10.890625 0.3125 8.109375 0.3125 C 6.640625 0.3125 5.367188 0.0546875 4.296875 -0.453125 C 3.222656 -0.960938 2.410156 -1.65625 1.859375 -2.53125 C 1.316406 -3.40625 1.046875 -4.40625 1.046875 -5.53125 C 1.046875 -7.320312 1.734375 -8.710938 3.109375 -9.703125 C 4.484375 -10.691406 6.601562 -11.1875 9.46875 -11.1875 L 13.25 -11.1875 C 13.132812 -13.195312 11.796875 -14.203125 9.234375 -14.203125 C 8.328125 -14.203125 7.40625 -14.054688 6.46875 -13.765625 C 5.539062 -13.472656 4.75 -13.066406 4.09375 -12.546875 L 1.859375 -17.0625 C 2.898438 -17.757812 4.171875 -18.300781 5.671875 -18.6875 C 7.179688 -19.070312 8.691406 -19.265625 10.203125 -19.265625 Z M 9.96875 -3.875 C 10.738281 -3.875 11.414062 -4.0625 12 -4.4375 C 12.582031 -4.8125 13 -5.359375 13.25 -6.078125 L 13.25 -7.734375 L 10.390625 -7.734375 C 8.453125 -7.734375 7.484375 -7.09375 7.484375 -5.8125 C 7.484375 -5.226562 7.703125 -4.757812 8.140625 -4.40625 C 8.585938 -4.050781 9.195312 -3.875 9.96875 -3.875 Z M 9.96875 -3.875 "/></g></g></g><g fill="#000000" fill-opacity="1"><g transform="translate(234.810749, 269.603346)"><g><path d="M 8.46875 -16.6875 C 9.132812 -17.539062 10.007812 -18.179688 11.09375 -18.609375 C 12.1875 -19.046875 13.429688 -19.265625 14.828125 -19.265625 L 14.828125 -13.28125 C 14.222656 -13.351562 13.722656 -13.390625 13.328125 -13.390625 C 11.898438 -13.390625 10.785156 -13.003906 9.984375 -12.234375 C 9.179688 -11.460938 8.78125 -10.285156 8.78125 -8.703125 L 8.78125 0 L 2.140625 0 L 2.140625 -18.953125 L 8.46875 -18.953125 Z M 8.46875 -16.6875 "/></g></g></g><g fill="#000000" fill-opacity="1"><g transform="translate(250.301871, 269.603346)"><g><path d="M 15.21875 -0.765625 C 14.65625 -0.421875 13.96875 -0.15625 13.15625 0.03125 C 12.351562 0.21875 11.5 0.3125 10.59375 0.3125 C 8.125 0.3125 6.222656 -0.289062 4.890625 -1.5 C 3.566406 -2.71875 2.90625 -4.523438 2.90625 -6.921875 L 2.90625 -13.28125 L 0.140625 -13.28125 L 0.140625 -18.25 L 2.90625 -18.25 L 2.90625 -23.1875 L 9.546875 -23.1875 L 9.546875 -18.25 L 13.875 -18.25 L 13.875 -13.28125 L 9.546875 -13.28125 L 9.546875 -7 C 9.546875 -6.320312 9.722656 -5.789062 10.078125 -5.40625 C 10.441406 -5.019531 10.929688 -4.828125 11.546875 -4.828125 C 12.304688 -4.828125 12.976562 -5.023438 13.5625 -5.421875 Z M 15.21875 -0.765625 "/></g></g></g><g fill="#000000" fill-opacity="1"><g transform="translate(121.625175, 291.743066)"><g><path d="M 6.3125 0.15625 C 5.238281 0.15625 4.269531 -0.078125 3.40625 -0.546875 C 2.550781 -1.015625 1.878906 -1.660156 1.390625 -2.484375 C 0.898438 -3.304688 0.65625 -4.226562 0.65625 -5.25 C 0.65625 -6.269531 0.898438 -7.191406 1.390625 -8.015625 C 1.878906 -8.835938 2.550781 -9.484375 3.40625 -9.953125 C 4.269531 -10.421875 5.238281 -10.65625 6.3125 -10.65625 C 7.382812 -10.65625 8.347656 -10.421875 9.203125 -9.953125 C 10.066406 -9.484375 10.742188 -8.835938 11.234375 -8.015625 C 11.722656 -7.203125 11.96875 -6.28125 11.96875 -5.25 C 11.96875 -4.21875 11.722656 -3.289062 11.234375 -2.46875 C 10.742188 -1.65625 10.066406 -1.015625 9.203125 -0.546875 C 8.347656 -0.078125 7.382812 0.15625 6.3125 0.15625 Z M 6.3125 -1.5625 C 7.007812 -1.5625 7.640625 -1.71875 8.203125 -2.03125 C 8.765625 -2.34375 9.203125 -2.78125 9.515625 -3.34375 C 9.835938 -3.914062 10 -4.550781 10 -5.25 C 10 -5.945312 9.835938 -6.578125 9.515625 -7.140625 C 9.203125 -7.710938 8.765625 -8.15625 8.203125 -8.46875 C 7.640625 -8.78125 7.007812 -8.9375 6.3125 -8.9375 C 5.613281 -8.9375 4.984375 -8.78125 4.421875 -8.46875 C 3.859375 -8.15625 3.414062 -7.710938 3.09375 -7.140625 C 2.78125 -6.578125 2.625 -5.945312 2.625 -5.25 C 2.625 -4.550781 2.78125 -3.914062 3.09375 -3.34375 C 3.414062 -2.78125 3.859375 -2.34375 4.421875 -2.03125 C 4.984375 -1.71875 5.613281 -1.5625 6.3125 -1.5625 Z M 6.3125 -1.5625 "/></g></g></g><g fill="#000000" fill-opacity="1"><g transform="translate(136.43016, 291.743066)"><g><path d="M 10.734375 -10.5 L 10.734375 0 L 9.140625 0 L 3.34375 -7.109375 L 3.34375 0 L 1.40625 0 L 1.40625 -10.5 L 3.015625 -10.5 L 8.8125 -3.390625 L 8.8125 -10.5 Z M 10.734375 -10.5 "/></g></g></g><g fill="#000000" fill-opacity="1"><g transform="translate(150.755145, 291.743066)"><g><path d="M 1.40625 -10.5 L 3.359375 -10.5 L 3.359375 -1.65625 L 8.84375 -1.65625 L 8.84375 0 L 1.40625 0 Z M 1.40625 -10.5 "/></g></g></g><g fill="#000000" fill-opacity="1"><g transform="translate(161.915139, 291.743066)"><g><path d="M 1.40625 -10.5 L 3.359375 -10.5 L 3.359375 0 L 1.40625 0 Z M 1.40625 -10.5 "/></g></g></g><g fill="#000000" fill-opacity="1"><g transform="translate(168.875132, 291.743066)"><g><path d="M 10.734375 -10.5 L 10.734375 0 L 9.140625 0 L 3.34375 -7.109375 L 3.34375 0 L 1.40625 0 L 1.40625 -10.5 L 3.015625 -10.5 L 8.8125 -3.390625 L 8.8125 -10.5 Z M 10.734375 -10.5 "/></g></g></g><g fill="#000000" fill-opacity="1"><g transform="translate(183.200118, 291.743066)"><g><path d="M 9.28125 -1.640625 L 9.28125 0 L 1.40625 0 L 1.40625 -10.5 L 9.078125 -10.5 L 9.078125 -8.859375 L 3.359375 -8.859375 L 3.359375 -6.140625 L 8.4375 -6.140625 L 8.4375 -4.53125 L 3.359375 -4.53125 L 3.359375 -1.640625 Z M 9.28125 -1.640625 "/></g></g></g><g fill="#000000" fill-opacity="1"><g transform="translate(195.425114, 291.743066)"><g/></g></g><g fill="#000000" fill-opacity="1"><g transform="translate(201.740107, 291.743066)"><g><path d="M 4.671875 0.15625 C 3.859375 0.15625 3.070312 0.0390625 2.3125 -0.1875 C 1.5625 -0.425781 0.96875 -0.734375 0.53125 -1.109375 L 1.203125 -2.625 C 1.628906 -2.28125 2.15625 -2 2.78125 -1.78125 C 3.40625 -1.570312 4.035156 -1.46875 4.671875 -1.46875 C 5.441406 -1.46875 6.019531 -1.59375 6.40625 -1.84375 C 6.789062 -2.09375 6.984375 -2.421875 6.984375 -2.828125 C 6.984375 -3.128906 6.875 -3.378906 6.65625 -3.578125 C 6.445312 -3.773438 6.175781 -3.925781 5.84375 -4.03125 C 5.519531 -4.144531 5.070312 -4.269531 4.5 -4.40625 C 3.695312 -4.59375 3.046875 -4.78125 2.546875 -4.96875 C 2.054688 -5.164062 1.632812 -5.46875 1.28125 -5.875 C 0.925781 -6.28125 0.75 -6.828125 0.75 -7.515625 C 0.75 -8.097656 0.90625 -8.625 1.21875 -9.09375 C 1.53125 -9.570312 2.003906 -9.953125 2.640625 -10.234375 C 3.273438 -10.515625 4.054688 -10.65625 4.984375 -10.65625 C 5.617188 -10.65625 6.242188 -10.570312 6.859375 -10.40625 C 7.484375 -10.25 8.019531 -10.019531 8.46875 -9.71875 L 7.859375 -8.203125 C 7.398438 -8.472656 6.921875 -8.675781 6.421875 -8.8125 C 5.921875 -8.957031 5.4375 -9.03125 4.96875 -9.03125 C 4.195312 -9.03125 3.625 -8.898438 3.25 -8.640625 C 2.875 -8.378906 2.6875 -8.035156 2.6875 -7.609375 C 2.6875 -7.304688 2.789062 -7.054688 3 -6.859375 C 3.21875 -6.671875 3.488281 -6.519531 3.8125 -6.40625 C 4.144531 -6.300781 4.597656 -6.179688 5.171875 -6.046875 C 5.953125 -5.867188 6.59375 -5.679688 7.09375 -5.484375 C 7.59375 -5.285156 8.019531 -4.984375 8.375 -4.578125 C 8.726562 -4.179688 8.90625 -3.644531 8.90625 -2.96875 C 8.90625 -2.382812 8.75 -1.859375 8.4375 -1.390625 C 8.125 -0.921875 7.644531 -0.546875 7 -0.265625 C 6.363281 0.015625 5.585938 0.15625 4.671875 0.15625 Z M 4.671875 0.15625 "/></g></g></g><g fill="#000000" fill-opacity="1"><g transform="translate(213.350097, 291.743066)"><g><path d="M 10.734375 -10.5 L 10.734375 0 L 8.796875 0 L 8.796875 -4.5 L 3.359375 -4.5 L 3.359375 0 L 1.40625 0 L 1.40625 -10.5 L 3.359375 -10.5 L 3.359375 -6.171875 L 8.796875 -6.171875 L 8.796875 -10.5 Z M 10.734375 -10.5 "/></g></g></g><g fill="#000000" fill-opacity="1"><g transform="translate(227.675083, 291.743066)"><g><path d="M 6.3125 0.15625 C 5.238281 0.15625 4.269531 -0.078125 3.40625 -0.546875 C 2.550781 -1.015625 1.878906 -1.660156 1.390625 -2.484375 C 0.898438 -3.304688 0.65625 -4.226562 0.65625 -5.25 C 0.65625 -6.269531 0.898438 -7.191406 1.390625 -8.015625 C 1.878906 -8.835938 2.550781 -9.484375 3.40625 -9.953125 C 4.269531 -10.421875 5.238281 -10.65625 6.3125 -10.65625 C 7.382812 -10.65625 8.347656 -10.421875 9.203125 -9.953125 C 10.066406 -9.484375 10.742188 -8.835938 11.234375 -8.015625 C 11.722656 -7.203125 11.96875 -6.28125 11.96875 -5.25 C 11.96875 -4.21875 11.722656 -3.289062 11.234375 -2.46875 C 10.742188 -1.65625 10.066406 -1.015625 9.203125 -0.546875 C 8.347656 -0.078125 7.382812 0.15625 6.3125 0.15625 Z M 6.3125 -1.5625 C 7.007812 -1.5625 7.640625 -1.71875 8.203125 -2.03125 C 8.765625 -2.34375 9.203125 -2.78125 9.515625 -3.34375 C 9.835938 -3.914062 10 -4.550781 10 -5.25 C 10 -5.945312 9.835938 -6.578125 9.515625 -7.140625 C 9.203125 -7.710938 8.765625 -8.15625 8.203125 -8.46875 C 7.640625 -8.78125 7.007812 -8.9375 6.3125 -8.9375 C 5.613281 -8.9375 4.984375 -8.78125 4.421875 -8.46875 C 3.859375 -8.15625 3.414062 -7.710938 3.09375 -7.140625 C 2.78125 -6.578125 2.625 -5.945312 2.625 -5.25 C 2.625 -4.550781 2.78125 -3.914062 3.09375 -3.34375 C 3.414062 -2.78125 3.859375 -2.34375 4.421875 -2.03125 C 4.984375 -1.71875 5.613281 -1.5625 6.3125 -1.5625 Z M 6.3125 -1.5625 "/></g></g></g><g fill="#000000" fill-opacity="1"><g transform="translate(242.480064, 291.743066)"><g><path d="M 5.734375 -10.5 C 6.640625 -10.5 7.429688 -10.347656 8.109375 -10.046875 C 8.785156 -9.742188 9.300781 -9.3125 9.65625 -8.75 C 10.019531 -8.195312 10.203125 -7.535156 10.203125 -6.765625 C 10.203125 -6.003906 10.019531 -5.34375 9.65625 -4.78125 C 9.300781 -4.21875 8.785156 -3.785156 8.109375 -3.484375 C 7.429688 -3.179688 6.640625 -3.03125 5.734375 -3.03125 L 3.359375 -3.03125 L 3.359375 0 L 1.40625 0 L 1.40625 -10.5 Z M 5.640625 -4.6875 C 6.492188 -4.6875 7.140625 -4.863281 7.578125 -5.21875 C 8.015625 -5.582031 8.234375 -6.097656 8.234375 -6.765625 C 8.234375 -7.429688 8.015625 -7.941406 7.578125 -8.296875 C 7.140625 -8.660156 6.492188 -8.84375 5.640625 -8.84375 L 3.359375 -8.84375 L 3.359375 -4.6875 Z M 5.640625 -4.6875 "/></g></g></g></svg>