<?xml version="1.0" encoding="UTF-8" standalone="no"?>
<svg
   width="100"
   zoomAndPan="magnify"
   viewBox="0 0 100 100"
   height="100"
   preserveAspectRatio="xMidYMid"
   version="1.0"
   id="svg9369"
   sodipodi:docname="FlexKart.svg"
   inkscape:version="1.2.1 (9c6d41e410, 2022-07-14)"
   xmlns:inkscape="http://www.inkscape.org/namespaces/inkscape"
   xmlns:sodipodi="http://sodipodi.sourceforge.net/DTD/sodipodi-0.dtd"
   xmlns="http://www.w3.org/2000/svg"
   xmlns:svg="http://www.w3.org/2000/svg">
  <sodipodi:namedview
     id="namedview9371"
     pagecolor="#ffffff"
     bordercolor="#000000"
     borderopacity="0.25"
     inkscape:showpageshadow="2"
     inkscape:pageopacity="0.0"
     inkscape:pagecheckerboard="0"
     inkscape:deskcolor="#d1d1d1"
     showgrid="false"
     inkscape:zoom="6.544"
     inkscape:cx="98.716382"
     inkscape:cy="56.616748"
     inkscape:window-width="1920"
     inkscape:window-height="991"
     inkscape:window-x="-9"
     inkscape:window-y="-9"
     inkscape:window-maximized="1"
     inkscape:current-layer="svg9369" />
  <defs
     id="defs9199">
    <g
       id="g9194" />
    <clipPath
       id="cd6ab234a2">
      <path
         d="m 112.5,78.757812 h 150 V 228.75781 h -150 z m 0,0"
         clip-rule="nonzero"
         id="path9196" />
    </clipPath>
  </defs>
  <g
     clip-path="url(#cd6ab234a2)"
     id="g9203"
     transform="matrix(0.46085384,0,0,0.46085384,-38.030858,-35.264188)">
    <path
       fill="#000000"
       d="m 187.46875,78.738281 c 41.41406,0 74.98828,33.570309 74.98828,74.988279 0,41.41406 -33.57422,74.98828 -74.98828,74.98828 -41.41406,0 -74.98828,-33.57422 -74.98828,-74.98828 0,-41.41797 33.57422,-74.988279 74.98828,-74.988279"
       fill-opacity="1"
       fill-rule="evenodd"
       id="path9201" />
  </g>
  <path
     fill="#ffffff"
     d="m 34.186377,42.233069 h 28.356907 l 4.027085,-22.598044 h -36.40926 z m 29.924898,3.746237 H 32.620197 c -0.892903,0 -1.684997,-0.642677 -1.843416,-1.551786 L 26.098032,18.171455 c -0.02881,-0.131417 -0.04318,-0.268231 -0.04318,-0.408649 0,-1.035119 0.8371,-1.872219 1.872219,-1.872219 h 40.877374 c 0.106195,0 0.212423,0.009 0.322233,0.02881 1.017118,0.178221 1.699401,1.148535 1.521178,2.165654 l -4.68055,26.27407 c -0.122411,0.914504 -0.907308,1.620188 -1.856012,1.620188"
     fill-opacity="1"
     fill-rule="evenodd"
     id="path9205"
     style="stroke-width:0.460853" />
  <path
     fill="#ffffff"
     d="m 41.817469,57.504248 c 1.755201,0 3.17917,1.422167 3.17917,3.17917 0,1.755212 -1.423969,3.17917 -3.17917,3.17917 -1.7552,0 -3.17917,-1.423958 -3.17917,-3.17917 0,-1.757003 1.42397,-3.17917 3.17917,-3.17917"
     fill-opacity="1"
     fill-rule="evenodd"
     id="path9207"
     style="stroke-width:0.460853" />
  <path
     fill="#ffffff"
     d="m 54.912204,57.504248 c 1.758805,0 3.17917,1.422167 3.17917,3.17917 0,1.755212 -1.422167,3.17917 -3.17917,3.17917 -1.755211,0 -3.179181,-1.423958 -3.179181,-3.17917 0,-1.757003 1.42397,-3.17917 3.179181,-3.17917"
     fill-opacity="1"
     fill-rule="evenodd"
     id="path9209"
     style="stroke-width:0.460853" />
  <path
     fill="#ffffff"
     d="m 34.872261,50.532039 h 29.347022 c 0.667879,0 1.267346,-0.270037 1.701202,-0.703894 l 0.0068,-0.0056 c 0.433856,-0.433857 0.702092,-1.035125 0.702092,-1.701202 0,-0.664276 -0.270037,-1.265544 -0.702092,-1.699401 l -0.0068,-0.0068 c -0.432054,-0.432054 -1.035113,-0.70208 -1.701202,-0.70208 H 34.872261 V 42.49968 h 29.347022 c 1.539185,0 2.939753,0.630075 3.960463,1.645391 l 0.01261,0.01126 c 1.01892,1.02071 1.650797,2.426684 1.650797,3.965857 0,1.537383 -0.630075,2.939753 -1.645391,3.962265 l -0.01126,0.01126 c -1.020721,1.01892 -2.426683,1.648994 -3.967658,1.648994 H 34.722838 c -0.883904,0 -1.607587,-0.721889 -1.607587,-1.605784 0,-0.883907 0.723683,-1.605784 1.607587,-1.605784 h 0.149419"
     fill-opacity="1"
     fill-rule="evenodd"
     id="path9211"
     style="stroke-width:0.460853" />
  <path
     fill="#ffffff"
     d="m 64.74135,13.674531 c -1.035125,0 -1.87402,-0.838901 -1.87402,-1.872218 0,-1.035124 0.838895,-1.8722206 1.87402,-1.8722206 h 10.840858 c 1.033322,0 1.872229,0.8370966 1.872229,1.8722206 0,1.033317 -0.838907,1.872218 -1.872229,1.872218 H 64.74135"
     fill-opacity="1"
     fill-rule="evenodd"
     id="path9213"
     style="stroke-width:0.460853" />
  <path
     fill="#ffffff"
     d="m 46.492613,17.762806 c 0,-1.035119 0.838895,-1.872219 1.87402,-1.872219 1.033323,0 1.872218,0.838897 1.872218,1.872219 v 26.344282 c 0,1.033323 -0.838895,1.872218 -1.872218,1.872218 -1.035125,0 -1.87402,-0.838895 -1.87402,-1.872218 V 17.762806"
     fill-opacity="1"
     fill-rule="evenodd"
     id="path9215"
     style="stroke-width:0.460853" />
  <path
     fill="#ffffff"
     d="m 30.272723,32.807164 c -1.033322,0 -1.872219,-0.838897 -1.872219,-1.872219 0,-1.03512 0.838897,-1.872218 1.872219,-1.872218 h 36.186023 c 1.033323,0 1.872218,0.837098 1.872218,1.872218 0,1.033322 -0.838895,1.872219 -1.87402,1.872219 H 30.272723"
     fill-opacity="1"
     fill-rule="evenodd"
     id="path9217"
     style="stroke-width:0.460853" />
  <g
     fill="#000000"
     fill-opacity="1"
     id="g9225"
     transform="matrix(0.46085384,0,0,0.46085384,-38.030858,-35.264188)">
    <g
       transform="translate(109.06341,269.60335)"
       id="g9223">
      <g
         id="g9221">
        <path
           d="m 9.375,-19.125 v 5.375 h 10.796875 v 5.359375 H 9.375 V 0 H 2.453125 v -24.484375 h 19.1875 V -19.125 Z m 0,0"
           id="path9219" />
      </g>
    </g>
  </g>
  <g
     fill="#000000"
     fill-opacity="1"
     id="g9233"
     transform="matrix(0.46085384,0,0,0.46085384,-38.030858,-35.264188)">
    <g
       transform="translate(131.51329,269.60335)"
       id="g9231">
      <g
         id="g9229">
        <path
           d="M 2.140625,-25.953125 H 8.78125 V 0 H 2.140625 Z m 0,0"
           id="path9227" />
      </g>
    </g>
  </g>
  <g
     fill="#000000"
     fill-opacity="1"
     id="g9241"
     transform="matrix(0.46085384,0,0,0.46085384,-38.030858,-35.264188)">
    <g
       transform="translate(142.45849,269.60335)"
       id="g9239">
      <g
         id="g9237">
        <path
           d="m 21.5,-9.4375 c 0,0.042969 -0.03125,0.589844 -0.09375,1.640625 H 7.625 c 0.28125,0.980469 0.820312,1.734375 1.625,2.265625 0.800781,0.523438 1.8125,0.78125 3.03125,0.78125 0.90625,0 1.6875,-0.128906 2.34375,-0.390625 0.664062,-0.257813 1.335938,-0.679687 2.015625,-1.265625 l 3.5,3.640625 C 18.296875,-0.710938 15.601562,0.3125 12.0625,0.3125 c -2.210938,0 -4.15625,-0.414062 -5.84375,-1.25 -1.679688,-0.84375 -2.980469,-2.007812 -3.90625,-3.5 -0.917969,-1.488281 -1.375,-3.179688 -1.375,-5.078125 0,-1.863281 0.445312,-3.535156 1.34375,-5.015625 0.90625,-1.476562 2.148438,-2.632812 3.734375,-3.46875 1.582031,-0.84375 3.363281,-1.265625 5.34375,-1.265625 1.894531,0 3.609375,0.390625 5.140625,1.171875 1.539062,0.78125 2.757812,1.914062 3.65625,3.390625 C 21.050781,-13.222656 21.5,-11.46875 21.5,-9.4375 Z m -10.09375,-5.109375 c -1.03125,0 -1.890625,0.292969 -2.578125,0.875 -0.6875,0.585937 -1.125,1.375 -1.3125,2.375 h 7.765625 c -0.1875,-1 -0.625,-1.789063 -1.3125,-2.375 -0.6875,-0.582031 -1.542969,-0.875 -2.5625,-0.875 z m 0,0"
           id="path9235" />
      </g>
    </g>
  </g>
  <g
     fill="#000000"
     fill-opacity="1"
     id="g9249"
     transform="matrix(0.46085384,0,0,0.46085384,-38.030858,-35.264188)">
    <g
       transform="translate(164.90838,269.60335)"
       id="g9247">
      <g
         id="g9245">
        <path
           d="M 14.15625,0 10.765625,-4.96875 7.140625,0 H -0.0625 l 7.203125,-9.46875 -7,-9.484375 H 7.625 l 3.359375,4.796875 3.5,-4.796875 H 21.5 L 14.515625,-9.71875 21.75,0 Z m 0,0"
           id="path9243" />
      </g>
    </g>
  </g>
  <g
     fill="#000000"
     fill-opacity="1"
     id="g9257"
     transform="matrix(0.46085384,0,0,0.46085384,-38.030858,-35.264188)">
    <g
       transform="translate(186.55398,269.60335)"
       id="g9255">
      <g
         id="g9253">
        <path
           d="m 11.890625,-8.875 -2.59375,2.75 V 0 h -6.84375 v -24.484375 h 6.84375 v 10.1875 l 9.484375,-10.1875 h 7.625 l -10,10.84375 L 26.921875,0 h -8.03125 z m 0,0"
           id="path9251" />
      </g>
    </g>
  </g>
  <g
     fill="#000000"
     fill-opacity="1"
     id="g9265"
     transform="matrix(0.46085384,0,0,0.46085384,-38.030858,-35.264188)">
    <g
       transform="translate(212.85042,269.60335)"
       id="g9263">
      <g
         id="g9261">
        <path
           d="m 10.203125,-19.265625 c 3.15625,0 5.554687,0.71875 7.203125,2.15625 1.65625,1.429687 2.484375,3.621094 2.484375,6.578125 V 0 h -6.1875 v -2.453125 c -0.949219,1.84375 -2.8125,2.765625 -5.59375,2.765625 -1.46875,0 -2.742187,-0.2578125 -3.8125,-0.765625 -1.074219,-0.507813 -1.886719,-1.203125 -2.4375,-2.078125 -0.542969,-0.875 -0.8125,-1.875 -0.8125,-3 0,-1.789062 0.6875,-3.179688 2.0625,-4.171875 1.375,-0.988281 3.492187,-1.484375 6.359375,-1.484375 H 13.25 c -0.117188,-2.007812 -1.453125,-3.015625 -4.015625,-3.015625 -0.90625,0 -1.828125,0.148437 -2.765625,0.4375 -0.929688,0.292969 -1.71875,0.699219 -2.375,1.21875 L 1.859375,-17.0625 c 1.039063,-0.695312 2.3125,-1.238281 3.8125,-1.625 1.507813,-0.382812 3.019531,-0.578125 4.53125,-0.578125 z M 9.96875,-3.875 c 0.769531,0 1.445312,-0.1875 2.03125,-0.5625 0.582031,-0.375 1,-0.921875 1.25,-1.640625 v -1.65625 h -2.859375 c -1.9375,0 -2.90625,0.640625 -2.90625,1.921875 0,0.585938 0.21875,1.054688 0.65625,1.40625 0.445313,0.355469 1.054687,0.53125 1.828125,0.53125 z m 0,0"
           id="path9259" />
      </g>
    </g>
  </g>
  <g
     fill="#000000"
     fill-opacity="1"
     id="g9273"
     transform="matrix(0.46085384,0,0,0.46085384,-38.030858,-35.264188)">
    <g
       transform="translate(234.81075,269.60335)"
       id="g9271">
      <g
         id="g9269">
        <path
           d="m 8.46875,-16.6875 c 0.664062,-0.851562 1.539062,-1.492188 2.625,-1.921875 1.09375,-0.4375 2.335938,-0.65625 3.734375,-0.65625 v 5.984375 c -0.605469,-0.07031 -1.105469,-0.109375 -1.5,-0.109375 -1.429687,0 -2.542969,0.386719 -3.34375,1.15625 -0.804687,0.773437 -1.203125,1.949219 -1.203125,3.53125 V 0 H 2.140625 V -18.953125 H 8.46875 Z m 0,0"
           id="path9267" />
      </g>
    </g>
  </g>
  <g
     fill="#000000"
     fill-opacity="1"
     id="g9281"
     transform="matrix(0.46085384,0,0,0.46085384,-38.030858,-35.264188)">
    <g
       transform="translate(250.30187,269.60335)"
       id="g9279">
      <g
         id="g9277">
        <path
           d="m 15.21875,-0.765625 c -0.5625,0.34375 -1.25,0.609375 -2.0625,0.796875 C 12.351562,0.21875 11.5,0.3125 10.59375,0.3125 8.125,0.3125 6.222656,-0.289062 4.890625,-1.5 3.566406,-2.71875 2.90625,-4.523438 2.90625,-6.921875 V -13.28125 H 0.140625 V -18.25 H 2.90625 v -4.9375 H 9.546875 V -18.25 H 13.875 v 4.96875 H 9.546875 V -7 c 0,0.679688 0.175781,1.210938 0.53125,1.59375 0.363281,0.386719 0.851563,0.578125 1.46875,0.578125 0.757813,0 1.429687,-0.195313 2.015625,-0.59375 z m 0,0"
           id="path9275" />
      </g>
    </g>
  </g>
  <g
     fill="#000000"
     fill-opacity="1"
     id="g9289"
     transform="matrix(0.46085384,0,0,0.46085384,-38.030858,-35.264188)">
    <g
       transform="translate(121.62518,291.74307)"
       id="g9287">
      <g
         id="g9285">
        <path
           d="m 6.3125,0.15625 c -1.074219,0 -2.042969,-0.234375 -2.90625,-0.703125 C 2.550781,-1.015625 1.878906,-1.660156 1.390625,-2.484375 0.898438,-3.304688 0.65625,-4.226562 0.65625,-5.25 c 0,-1.019531 0.242188,-1.941406 0.734375,-2.765625 0.488281,-0.820313 1.160156,-1.46875 2.015625,-1.9375 0.863281,-0.46875 1.832031,-0.703125 2.90625,-0.703125 1.070312,0 2.035156,0.234375 2.890625,0.703125 0.863281,0.46875 1.539063,1.117187 2.03125,1.9375 0.488281,0.8125 0.734375,1.734375 0.734375,2.765625 0,1.03125 -0.246094,1.960938 -0.734375,2.78125 -0.492187,0.8125 -1.167969,1.453125 -2.03125,1.921875 C 8.347656,-0.078125 7.382812,0.15625 6.3125,0.15625 Z m 0,-1.71875 c 0.695312,0 1.328125,-0.15625 1.890625,-0.46875 0.5625,-0.3125 1,-0.75 1.3125,-1.3125 C 9.835938,-3.914062 10,-4.550781 10,-5.25 10,-5.945312 9.835938,-6.578125 9.515625,-7.140625 9.203125,-7.710938 8.765625,-8.15625 8.203125,-8.46875 7.640625,-8.78125 7.007812,-8.9375 6.3125,-8.9375 c -0.699219,0 -1.328125,0.15625 -1.890625,0.46875 -0.5625,0.3125 -1.007813,0.757812 -1.328125,1.328125 C 2.78125,-6.578125 2.625,-5.945312 2.625,-5.25 c 0,0.699219 0.15625,1.335938 0.46875,1.90625 0.320312,0.5625 0.765625,1 1.328125,1.3125 0.5625,0.3125 1.191406,0.46875 1.890625,0.46875 z m 0,0"
           id="path9283" />
      </g>
    </g>
  </g>
  <g
     fill="#000000"
     fill-opacity="1"
     id="g9297"
     transform="matrix(0.46085384,0,0,0.46085384,-38.030858,-35.264188)">
    <g
       transform="translate(136.43016,291.74307)"
       id="g9295">
      <g
         id="g9293">
        <path
           d="M 10.734375,-10.5 V 0 H 9.140625 L 3.34375,-7.109375 V 0 H 1.40625 V -10.5 H 3.015625 L 8.8125,-3.390625 V -10.5 Z m 0,0"
           id="path9291" />
      </g>
    </g>
  </g>
  <g
     fill="#000000"
     fill-opacity="1"
     id="g9305"
     transform="matrix(0.46085384,0,0,0.46085384,-38.030858,-35.264188)">
    <g
       transform="translate(150.75514,291.74307)"
       id="g9303">
      <g
         id="g9301">
        <path
           d="m 1.40625,-10.5 h 1.953125 v 8.84375 H 8.84375 V 0 h -7.4375 z m 0,0"
           id="path9299" />
      </g>
    </g>
  </g>
  <g
     fill="#000000"
     fill-opacity="1"
     id="g9313"
     transform="matrix(0.46085384,0,0,0.46085384,-38.030858,-35.264188)">
    <g
       transform="translate(161.91514,291.74307)"
       id="g9311">
      <g
         id="g9309">
        <path
           d="M 1.40625,-10.5 H 3.359375 V 0 H 1.40625 Z m 0,0"
           id="path9307" />
      </g>
    </g>
  </g>
  <g
     fill="#000000"
     fill-opacity="1"
     id="g9321"
     transform="matrix(0.46085384,0,0,0.46085384,-38.030858,-35.264188)">
    <g
       transform="translate(168.87513,291.74307)"
       id="g9319">
      <g
         id="g9317">
        <path
           d="M 10.734375,-10.5 V 0 H 9.140625 L 3.34375,-7.109375 V 0 H 1.40625 V -10.5 H 3.015625 L 8.8125,-3.390625 V -10.5 Z m 0,0"
           id="path9315" />
      </g>
    </g>
  </g>
  <g
     fill="#000000"
     fill-opacity="1"
     id="g9329"
     transform="matrix(0.46085384,0,0,0.46085384,-38.030858,-35.264188)">
    <g
       transform="translate(183.20012,291.74307)"
       id="g9327">
      <g
         id="g9325">
        <path
           d="M 9.28125,-1.640625 V 0 h -7.875 v -10.5 h 7.671875 v 1.640625 h -5.71875 v 2.71875 H 8.4375 V -4.53125 H 3.359375 v 2.890625 z m 0,0"
           id="path9323" />
      </g>
    </g>
  </g>
  <g
     fill="#000000"
     fill-opacity="1"
     id="g9335">
    <g
       transform="translate(195.42511,291.74307)"
       id="g9333">
      <g
         id="g9331" />
    </g>
  </g>
  <g
     fill="#000000"
     fill-opacity="1"
     id="g9343"
     transform="matrix(0.46085384,0,0,0.46085384,-38.030858,-35.264188)">
    <g
       transform="translate(201.74011,291.74307)"
       id="g9341">
      <g
         id="g9339">
        <path
           d="M 4.671875,0.15625 C 3.859375,0.15625 3.070312,0.0390625 2.3125,-0.1875 1.5625,-0.425781 0.96875,-0.734375 0.53125,-1.109375 L 1.203125,-2.625 C 1.628906,-2.28125 2.15625,-2 2.78125,-1.78125 c 0.625,0.210938 1.253906,0.3125 1.890625,0.3125 0.769531,0 1.347656,-0.125 1.734375,-0.375 0.382812,-0.25 0.578125,-0.578125 0.578125,-0.984375 0,-0.300781 -0.109375,-0.550781 -0.328125,-0.75 C 6.445312,-3.773438 6.175781,-3.925781 5.84375,-4.03125 5.519531,-4.144531 5.070312,-4.269531 4.5,-4.40625 3.695312,-4.59375 3.046875,-4.78125 2.546875,-4.96875 2.054688,-5.164062 1.632812,-5.46875 1.28125,-5.875 0.925781,-6.28125 0.75,-6.828125 0.75,-7.515625 0.75,-8.097656 0.90625,-8.625 1.21875,-9.09375 c 0.3125,-0.476562 0.785156,-0.859375 1.421875,-1.140625 0.632813,-0.28125 1.414063,-0.421875 2.34375,-0.421875 0.632813,0 1.257813,0.08594 1.875,0.25 0.625,0.15625 1.160156,0.386719 1.609375,0.6875 l -0.609375,1.515625 c -0.460937,-0.269531 -0.9375,-0.472656 -1.4375,-0.609375 -0.5,-0.144531 -0.984375,-0.21875 -1.453125,-0.21875 -0.773438,0 -1.34375,0.132812 -1.71875,0.390625 -0.375,0.261719 -0.5625,0.605469 -0.5625,1.03125 0,0.304687 0.101562,0.554687 0.3125,0.75 0.21875,0.1875 0.488281,0.339844 0.8125,0.453125 0.332031,0.105469 0.785156,0.226562 1.359375,0.359375 0.78125,0.179687 1.421875,0.367187 1.921875,0.5625 0.5,0.199219 0.925781,0.5 1.28125,0.90625 0.351562,0.398437 0.53125,0.933594 0.53125,1.609375 0,0.585938 -0.15625,1.109375 -0.46875,1.578125 C 8.125,-0.921875 7.644531,-0.546875 7,-0.265625 6.363281,0.015625 5.585938,0.15625 4.671875,0.15625 Z m 0,0"
           id="path9337" />
      </g>
    </g>
  </g>
  <g
     fill="#000000"
     fill-opacity="1"
     id="g9351"
     transform="matrix(0.46085384,0,0,0.46085384,-38.030858,-35.264188)">
    <g
       transform="translate(213.3501,291.74307)"
       id="g9349">
      <g
         id="g9347">
        <path
           d="M 10.734375,-10.5 V 0 h -1.9375 v -4.5 h -5.4375 V 0 H 1.40625 v -10.5 h 1.953125 v 4.328125 h 5.4375 V -10.5 Z m 0,0"
           id="path9345" />
      </g>
    </g>
  </g>
  <g
     fill="#000000"
     fill-opacity="1"
     id="g9359"
     transform="matrix(0.46085384,0,0,0.46085384,-38.030858,-35.264188)">
    <g
       transform="translate(227.67508,291.74307)"
       id="g9357">
      <g
         id="g9355">
        <path
           d="m 6.3125,0.15625 c -1.074219,0 -2.042969,-0.234375 -2.90625,-0.703125 C 2.550781,-1.015625 1.878906,-1.660156 1.390625,-2.484375 0.898438,-3.304688 0.65625,-4.226562 0.65625,-5.25 c 0,-1.019531 0.242188,-1.941406 0.734375,-2.765625 0.488281,-0.820313 1.160156,-1.46875 2.015625,-1.9375 0.863281,-0.46875 1.832031,-0.703125 2.90625,-0.703125 1.070312,0 2.035156,0.234375 2.890625,0.703125 0.863281,0.46875 1.539063,1.117187 2.03125,1.9375 0.488281,0.8125 0.734375,1.734375 0.734375,2.765625 0,1.03125 -0.246094,1.960938 -0.734375,2.78125 -0.492187,0.8125 -1.167969,1.453125 -2.03125,1.921875 C 8.347656,-0.078125 7.382812,0.15625 6.3125,0.15625 Z m 0,-1.71875 c 0.695312,0 1.328125,-0.15625 1.890625,-0.46875 0.5625,-0.3125 1,-0.75 1.3125,-1.3125 C 9.835938,-3.914062 10,-4.550781 10,-5.25 10,-5.945312 9.835938,-6.578125 9.515625,-7.140625 9.203125,-7.710938 8.765625,-8.15625 8.203125,-8.46875 7.640625,-8.78125 7.007812,-8.9375 6.3125,-8.9375 c -0.699219,0 -1.328125,0.15625 -1.890625,0.46875 -0.5625,0.3125 -1.007813,0.757812 -1.328125,1.328125 C 2.78125,-6.578125 2.625,-5.945312 2.625,-5.25 c 0,0.699219 0.15625,1.335938 0.46875,1.90625 0.320312,0.5625 0.765625,1 1.328125,1.3125 0.5625,0.3125 1.191406,0.46875 1.890625,0.46875 z m 0,0"
           id="path9353" />
      </g>
    </g>
  </g>
  <g
     fill="#000000"
     fill-opacity="1"
     id="g9367"
     transform="matrix(0.46085384,0,0,0.46085384,-38.030858,-35.264188)">
    <g
       transform="translate(242.48006,291.74307)"
       id="g9365">
      <g
         id="g9363">
        <path
           d="m 5.734375,-10.5 c 0.90625,0 1.695313,0.152344 2.375,0.453125 0.675781,0.304687 1.191406,0.734375 1.546875,1.296875 0.363281,0.554688 0.546875,1.214844 0.546875,1.984375 0,0.761719 -0.183594,1.421875 -0.546875,1.984375 -0.355469,0.5625 -0.871094,0.996094 -1.546875,1.296875 -0.679687,0.304687 -1.46875,0.453125 -2.375,0.453125 h -2.375 V 0 H 1.40625 v -10.5 z m -0.09375,5.8125 c 0.851563,0 1.5,-0.175781 1.9375,-0.53125 0.4375,-0.363281 0.65625,-0.878906 0.65625,-1.546875 0,-0.664063 -0.21875,-1.175781 -0.65625,-1.53125 -0.4375,-0.363281 -1.085937,-0.546875 -1.9375,-0.546875 h -2.28125 v 4.15625 z m 0,0"
           id="path9361" />
      </g>
    </g>
  </g>
</svg>
