<svg xmlns:xlink="http://www.w3.org/1999/xlink" xmlns="http://www.w3.org/2000/svg" height="30" width="30" viewBox="0 0 24 20" preserveAspectRatio="xMinYMid meet"><defs><g id="menu"><path d="M22.3900156,11.0328397 L1.5725429,11.0328397 C0.711388456,11.0328397 0,10.5417797 0,9.97318388 C0,9.37874283 0.711388456,8.88768283 1.5725429,8.88768283 L1.5725429,8.88768283 L22.4274571,8.88768283 C23.2886115,8.88768283 24,9.35289756 24,9.94733861 C23.9625585,10.5676249 23.25117,11.0328397 22.3900156,11.0328397 L22.3900156,11.0328397 Z M22.3900156,2.14515684 L1.5725429,2.14515684 C0.711388456,2.14515684 0,1.65409684 0,1.05965579 C0,0.491059999 0.711388456,0 1.5725429,0 L1.5725429,0 L22.4274571,0 C23.25117,0 23.9625585,0.491059999 23.9625585,1.05965579 C23.9625585,1.65409684 23.25117,2.14515684 22.3900156,2.14515684 L22.3900156,2.14515684 Z M1.5725429,20 C0.711388456,20 0,19.5029515 0,18.9274216 C0,18.3257312 0.711388456,17.8548432 1.5725429,17.8548432 L1.5725429,17.8548432 L22.4274571,17.8548432 C23.2886115,17.8548432 24,18.3257312 24,18.9274216 C24,19.5291119 23.2886115,20 22.4274571,20 L1.5725429,20 Z"></path></g></defs><!----><use xlink:href="#menu"></use></svg>