<svg xmlns:xlink="http://www.w3.org/1999/xlink" xmlns="http://www.w3.org/2000/svg" width="45" height="44" viewBox="0 0 45 44">
<path d="M13.3371 43.9701C9.9497 43.9663 6.70212 42.6189 4.30689 40.2236C1.91165 37.8283 0.564346 34.5808 0.560547 31.1934V13.1976C0.564346 9.81023 1.91165 6.56266 4.30689 4.16739C6.70212 1.77211 9.9497 0.424762 13.3371 0.420898H31.3325C34.72 0.424698 37.9676 1.77201 40.3629 4.1673C42.7582 6.56258 44.1055 9.81019 44.1093 13.1976V31.1931C44.1055 34.5806 42.7582 37.8282 40.3629 40.2235C37.9676 42.6188 34.72 43.9661 31.3325 43.9699L13.3371 43.9701ZM13.3371 3.92703C10.8794 3.93012 8.52323 4.9079 6.78548 6.64589C5.04772 8.38387 4.07022 10.7402 4.06745 13.1979V31.1934C4.07022 33.6511 5.04767 36.0074 6.78542 37.7454C8.52317 39.4835 10.8794 40.4613 13.3371 40.4645H31.3325C33.7905 40.4617 36.1471 39.484 37.8852 37.746C39.6232 36.0079 40.6009 33.6514 40.6036 31.1934V13.1976C40.6008 10.7397 39.6231 8.38322 37.8851 6.64521C36.147 4.90719 33.7905 3.92956 31.3325 3.92679L13.3371 3.92703Z" fill="#222222"></path>
<path d="M22.3348 33.2238C20.1537 33.2238 18.0215 32.577 16.208 31.3652C14.3944 30.1533 12.981 28.431 12.1463 26.4158C11.3117 24.4007 11.0933 22.1833 11.5188 20.0441C11.9443 17.9049 12.9947 15.9399 14.537 14.3976C16.0793 12.8553 18.0443 11.8049 20.1835 11.3794C22.3228 10.9539 24.5402 11.1722 26.5553 12.0069C28.5704 12.8416 30.2928 14.255 31.5046 16.0686C32.7164 17.8821 33.3632 20.0143 33.3633 22.1954C33.36 25.1193 32.197 27.9226 30.1295 29.9901C28.062 32.0576 25.2587 33.2206 22.3348 33.2238ZM22.3348 14.6729C20.847 14.673 19.3927 15.1142 18.1557 15.9408C16.9186 16.7674 15.9545 17.9423 15.3851 19.3168C14.8158 20.6914 14.6669 22.2038 14.9572 23.663C15.2474 25.1222 15.9638 26.4626 17.0159 27.5146C18.0679 28.5667 19.4082 29.2831 20.8674 29.5734C22.3266 29.8636 23.8392 29.7147 25.2137 29.1454C26.5883 28.576 27.7631 27.6119 28.5897 26.3749C29.4163 25.1378 29.8575 23.6834 29.8576 22.1957C29.8553 20.2012 29.062 18.2891 27.6517 16.8788C26.2414 15.4684 24.3293 14.6752 22.3348 14.6729Z" fill="#222222"></path>
<path d="M33.872 13.0399C33.4225 13.0399 32.9831 12.9066 32.6094 12.6569C32.2357 12.4072 31.9444 12.0522 31.7723 11.637C31.6003 11.2217 31.5553 10.7648 31.643 10.3239C31.7307 9.88306 31.9472 9.47809 32.265 9.16026C32.5828 8.84242 32.9878 8.62598 33.4286 8.53829C33.8695 8.4506 34.3264 8.49562 34.7417 8.66764C35.157 8.83965 35.5119 9.13092 35.7616 9.50465C36.0114 9.87839 36.1446 10.3178 36.1446 10.7673C36.1439 11.3698 35.9043 11.9474 35.4782 12.3735C35.0522 12.7995 34.4745 13.0392 33.872 13.0399Z" fill="#222222"></path>
</svg>