<svg xmlns:xlink="http://www.w3.org/1999/xlink" xmlns="http://www.w3.org/2000/svg" height="24" width="21" viewBox="0 0 31 36" preserveAspectRatio="xMinYMid meet"><defs><g id="bag"><rect class="bag-background" x="1" y="8" width="28" height="26" fill="currentColor"></rect><path d="M28.3807 35.2401H2.08082C1.60228 35.2398 1.14343 35.0505 0.805058 34.7137C0.466682 34.377 0.276438 33.9203 0.276123 33.4441V9.09709C0.276438 8.62084 0.466682 8.16419 0.805058 7.82743C1.14343 7.49067 1.60228 7.30134 2.08082 7.30103H28.3807C28.8592 7.30134 29.3181 7.49067 29.6564 7.82743C29.9948 8.16419 30.185 8.62084 30.1854 9.09709V33.4448C30.1848 33.921 29.9945 34.3774 29.6561 34.714C29.3178 35.0506 28.8591 35.2398 28.3807 35.2401ZM2.08082 8.88077C2.02296 8.88077 1.96747 8.90365 1.92656 8.94436C1.88565 8.98508 1.86266 9.04029 1.86266 9.09787V33.4448C1.86266 33.5024 1.88565 33.5577 1.92656 33.5984C1.96747 33.6391 2.02296 33.6619 2.08082 33.6619H28.3807C28.4385 33.6619 28.494 33.6391 28.5349 33.5984C28.5758 33.5577 28.5988 33.5024 28.5988 33.4448V9.09709C28.5988 9.03951 28.5758 8.98428 28.5349 8.94357C28.494 8.90285 28.4385 8.87997 28.3807 8.87997L2.08082 8.88077Z" fill="black"></path><path d="M22.3583 12.4423C22.1479 12.4423 21.9461 12.3592 21.7973 12.2111C21.6486 12.0631 21.565 11.8623 21.565 11.6529V8.58794C21.565 6.93061 20.9035 5.34115 19.7259 4.16924C18.5484 2.99733 16.9513 2.33896 15.286 2.33896C13.6207 2.33896 12.0236 2.99733 10.846 4.16924C9.66849 5.34115 9.00695 6.93061 9.00695 8.58794V11.6529C9.00695 11.8623 8.92337 12.0631 8.77461 12.2111C8.62584 12.3592 8.42407 12.4423 8.21368 12.4423C8.00329 12.4423 7.80152 12.3592 7.65275 12.2111C7.50399 12.0631 7.42041 11.8623 7.42041 11.6529V8.58794C7.42041 6.51184 8.2491 4.52078 9.72418 3.05276C11.1993 1.58473 13.1999 0.76001 15.286 0.76001C17.372 0.76001 19.3727 1.58473 20.8478 3.05276C22.3228 4.52078 23.1515 6.51184 23.1515 8.58794V11.6529C23.1515 11.8623 23.068 12.0631 22.9192 12.2111C22.7704 12.3592 22.5687 12.4423 22.3583 12.4423Z" fill="black"></path></g></defs><title>shopping bag</title><use xlink:href="#bag"></use></svg>