<svg width="109" height="60" viewBox="0 0 109 60" fill="none" xmlns="http://www.w3.org/2000/svg">
<g clip-path="url(#clip0_3_2)">
<path d="M57.41 17.825H56.465V19.4525H54.8375V20.3975H56.465V22.025H57.41V20.3975H59.0375V19.4525H57.41V17.825Z" fill="#020202"/>
<path d="M61.1375 12.05H52.7375C52.16 12.05 51.6875 12.5225 51.6875 13.1V15.2H47.4875C46.91 15.2 46.4375 15.6725 46.4375 16.25V29.9C46.4375 30.4775 46.91 30.95 47.4875 30.95H55.8875C56.465 30.95 56.9375 30.4775 56.9375 29.9V27.8H61.1375C61.715 27.8 62.1875 27.3275 62.1875 26.75V13.1C62.1875 12.5225 61.715 12.05 61.1375 12.05ZM55.8875 29.9H47.4875V16.25H51.6875V20.975H51.215V22.6025H49.5875V23.5475H51.215V25.175H51.6875V26.75C51.6875 27.3275 52.16 27.8 52.7375 27.8H55.8875V29.9ZM61.1375 26.75H52.7375V13.1H61.1375V26.75Z" fill="#020202"/>
</g>
<path d="M13.0469 41.3447H10.5244L10.5107 40.2852H12.8008C13.179 40.2852 13.5094 40.2214 13.792 40.0938C14.0745 39.9661 14.2933 39.7839 14.4482 39.5469C14.6077 39.3053 14.6875 39.0182 14.6875 38.6855C14.6875 38.321 14.6169 38.0247 14.4756 37.7969C14.3389 37.5645 14.127 37.3958 13.8398 37.291C13.5573 37.1816 13.1973 37.127 12.7598 37.127H10.8184V46H9.49902V36.0469H12.7598C13.2702 36.0469 13.7259 36.0993 14.127 36.2041C14.528 36.3044 14.8675 36.4639 15.1455 36.6826C15.4281 36.8968 15.6423 37.1702 15.7881 37.5029C15.9339 37.8356 16.0068 38.2344 16.0068 38.6992C16.0068 39.1094 15.902 39.4808 15.6924 39.8135C15.4827 40.1416 15.1911 40.4105 14.8174 40.6201C14.4482 40.8298 14.0153 40.9642 13.5186 41.0234L13.0469 41.3447ZM12.9854 46H10.0049L10.75 44.9268H12.9854C13.4046 44.9268 13.7601 44.8538 14.0518 44.708C14.348 44.5622 14.5736 44.3571 14.7285 44.0928C14.8835 43.8239 14.9609 43.5072 14.9609 43.1426C14.9609 42.7734 14.8949 42.4544 14.7627 42.1855C14.6305 41.9167 14.4232 41.7093 14.1406 41.5635C13.8581 41.4176 13.4935 41.3447 13.0469 41.3447H11.167L11.1807 40.2852H13.751L14.0312 40.668C14.5098 40.709 14.9154 40.8457 15.248 41.0781C15.5807 41.306 15.8337 41.5977 16.0068 41.9531C16.1846 42.3086 16.2734 42.7005 16.2734 43.1289C16.2734 43.7487 16.1367 44.2728 15.8633 44.7012C15.5944 45.125 15.2139 45.4486 14.7217 45.6719C14.2295 45.8906 13.6507 46 12.9854 46ZM21.0996 46.1367C20.5846 46.1367 20.1175 46.0501 19.6982 45.877C19.2835 45.6992 18.9258 45.4508 18.625 45.1318C18.3288 44.8128 18.1009 44.4346 17.9414 43.9971C17.7819 43.5596 17.7021 43.0811 17.7021 42.5615V42.2744C17.7021 41.6729 17.791 41.1374 17.9688 40.668C18.1465 40.194 18.388 39.793 18.6934 39.4648C18.9987 39.1367 19.3451 38.8883 19.7324 38.7197C20.1198 38.5511 20.5208 38.4668 20.9355 38.4668C21.4642 38.4668 21.9199 38.5579 22.3027 38.7402C22.6901 38.9225 23.0068 39.1777 23.2529 39.5059C23.499 39.8294 23.6813 40.2122 23.7998 40.6543C23.9183 41.0918 23.9775 41.5703 23.9775 42.0898V42.6572H18.4541V41.625H22.7129V41.5293C22.6947 41.2012 22.6263 40.8822 22.5078 40.5723C22.3939 40.2624 22.2116 40.0072 21.9609 39.8066C21.7103 39.6061 21.3685 39.5059 20.9355 39.5059C20.6484 39.5059 20.3841 39.5674 20.1426 39.6904C19.901 39.8089 19.6937 39.9867 19.5205 40.2236C19.3473 40.4606 19.2129 40.75 19.1172 41.0918C19.0215 41.4336 18.9736 41.8278 18.9736 42.2744V42.5615C18.9736 42.9124 19.0215 43.2428 19.1172 43.5527C19.2174 43.8581 19.361 44.127 19.5479 44.3594C19.7393 44.5918 19.9694 44.7741 20.2383 44.9062C20.5117 45.0384 20.8216 45.1045 21.168 45.1045C21.6146 45.1045 21.9928 45.0133 22.3027 44.8311C22.6126 44.6488 22.8838 44.4049 23.1162 44.0996L23.8818 44.708C23.7223 44.9495 23.5195 45.1797 23.2734 45.3984C23.0273 45.6172 22.7243 45.7949 22.3643 45.9316C22.0088 46.0684 21.5872 46.1367 21.0996 46.1367ZM26.8281 35.5V46H25.5566V35.5H26.8281ZM30.1299 35.5V46H28.8584V35.5H30.1299ZM34.6484 38.6035L31.4219 42.0557L29.6172 43.9287L29.5146 42.582L30.8066 41.0371L33.1035 38.6035H34.6484ZM33.4932 46L30.8545 42.4727L31.5107 41.3447L34.9834 46H33.4932ZM39.6182 36.0469H42.9131C43.6605 36.0469 44.2917 36.1608 44.8066 36.3887C45.3262 36.6165 45.7204 36.9538 45.9893 37.4004C46.2627 37.8424 46.3994 38.387 46.3994 39.0342C46.3994 39.4899 46.306 39.9069 46.1191 40.2852C45.9368 40.6589 45.6725 40.9779 45.3262 41.2422C44.9844 41.502 44.5742 41.6956 44.0957 41.8232L43.7266 41.9668H40.6299L40.6162 40.8936H42.9541C43.4281 40.8936 43.8223 40.8115 44.1367 40.6475C44.4512 40.4788 44.6882 40.2533 44.8477 39.9707C45.0072 39.6882 45.0869 39.376 45.0869 39.0342C45.0869 38.6514 45.0117 38.3164 44.8613 38.0293C44.7109 37.7422 44.474 37.5212 44.1504 37.3662C43.8314 37.2067 43.4189 37.127 42.9131 37.127H40.9375V46H39.6182V36.0469ZM45.4355 46L43.0156 41.4883L44.3896 41.4814L46.8438 45.918V46H45.4355ZM51.123 46.1367C50.6081 46.1367 50.141 46.0501 49.7217 45.877C49.307 45.6992 48.9492 45.4508 48.6484 45.1318C48.3522 44.8128 48.1243 44.4346 47.9648 43.9971C47.8053 43.5596 47.7256 43.0811 47.7256 42.5615V42.2744C47.7256 41.6729 47.8145 41.1374 47.9922 40.668C48.1699 40.194 48.4115 39.793 48.7168 39.4648C49.0221 39.1367 49.3685 38.8883 49.7559 38.7197C50.1432 38.5511 50.5443 38.4668 50.959 38.4668C51.4876 38.4668 51.9434 38.5579 52.3262 38.7402C52.7135 38.9225 53.0303 39.1777 53.2764 39.5059C53.5225 39.8294 53.7048 40.2122 53.8232 40.6543C53.9417 41.0918 54.001 41.5703 54.001 42.0898V42.6572H48.4775V41.625H52.7363V41.5293C52.7181 41.2012 52.6497 40.8822 52.5312 40.5723C52.4173 40.2624 52.235 40.0072 51.9844 39.8066C51.7337 39.6061 51.3919 39.5059 50.959 39.5059C50.6719 39.5059 50.4076 39.5674 50.166 39.6904C49.9245 39.8089 49.7171 39.9867 49.5439 40.2236C49.3708 40.4606 49.2363 40.75 49.1406 41.0918C49.0449 41.4336 48.9971 41.8278 48.9971 42.2744V42.5615C48.9971 42.9124 49.0449 43.2428 49.1406 43.5527C49.2409 43.8581 49.3844 44.127 49.5713 44.3594C49.7627 44.5918 49.9928 44.7741 50.2617 44.9062C50.5352 45.0384 50.8451 45.1045 51.1914 45.1045C51.638 45.1045 52.0163 45.0133 52.3262 44.8311C52.6361 44.6488 52.9072 44.4049 53.1396 44.0996L53.9053 44.708C53.7458 44.9495 53.543 45.1797 53.2969 45.3984C53.0508 45.6172 52.7477 45.7949 52.3877 45.9316C52.0322 46.0684 51.6107 46.1367 51.123 46.1367ZM57.3506 44.6875L59.251 38.6035H60.085L59.9209 39.8135L57.9863 46H57.1729L57.3506 44.6875ZM56.0723 38.6035L57.6924 44.7559L57.8086 46H56.9541L54.8076 38.6035H56.0723ZM61.9033 44.708L63.4482 38.6035H64.7061L62.5596 46H61.7119L61.9033 44.708ZM60.2695 38.6035L62.1289 44.585L62.3408 46H61.5342L59.5449 39.7998L59.3809 38.6035H60.2695ZM70.3662 44.7354V40.9277C70.3662 40.6361 70.307 40.3831 70.1885 40.1689C70.0745 39.9502 69.9014 39.7816 69.6689 39.6631C69.4365 39.5446 69.1494 39.4854 68.8076 39.4854C68.4886 39.4854 68.2083 39.54 67.9668 39.6494C67.7298 39.7588 67.543 39.9023 67.4062 40.0801C67.2741 40.2578 67.208 40.4492 67.208 40.6543H65.9434C65.9434 40.39 66.0117 40.1279 66.1484 39.8682C66.2852 39.6084 66.4811 39.3737 66.7363 39.1641C66.9961 38.9499 67.306 38.7812 67.666 38.6582C68.0306 38.5306 68.4362 38.4668 68.8828 38.4668C69.4206 38.4668 69.8945 38.5579 70.3047 38.7402C70.7194 38.9225 71.043 39.1982 71.2754 39.5674C71.5124 39.932 71.6309 40.39 71.6309 40.9414V44.3867C71.6309 44.6328 71.6514 44.8949 71.6924 45.1729C71.738 45.4508 71.804 45.6901 71.8906 45.8906V46H70.5713C70.5075 45.8542 70.4574 45.6605 70.4209 45.4189C70.3844 45.1729 70.3662 44.945 70.3662 44.7354ZM70.585 41.5156L70.5986 42.4043H69.3203C68.9603 42.4043 68.639 42.4339 68.3564 42.4932C68.0739 42.5479 67.8369 42.6322 67.6455 42.7461C67.4541 42.86 67.3083 43.0036 67.208 43.1768C67.1077 43.3454 67.0576 43.5436 67.0576 43.7715C67.0576 44.0039 67.11 44.2158 67.2148 44.4072C67.3197 44.5986 67.4769 44.7513 67.6865 44.8652C67.9007 44.9746 68.1628 45.0293 68.4727 45.0293C68.86 45.0293 69.2018 44.9473 69.498 44.7832C69.7943 44.6191 70.029 44.4186 70.2021 44.1816C70.3799 43.9447 70.4756 43.7145 70.4893 43.4912L71.0293 44.0996C70.9974 44.291 70.9108 44.5029 70.7695 44.7354C70.6283 44.9678 70.4391 45.1911 70.2021 45.4053C69.9697 45.6149 69.6917 45.7904 69.3682 45.9316C69.0492 46.0684 68.6891 46.1367 68.2881 46.1367C67.7868 46.1367 67.347 46.0387 66.9688 45.8428C66.5951 45.6468 66.3034 45.3848 66.0938 45.0566C65.8887 44.724 65.7861 44.3525 65.7861 43.9424C65.7861 43.5459 65.8636 43.1973 66.0186 42.8965C66.1735 42.5911 66.3968 42.3382 66.6885 42.1377C66.9801 41.9326 67.3311 41.7777 67.7412 41.6729C68.1514 41.568 68.6094 41.5156 69.1152 41.5156H70.585ZM74.8848 39.7656V46H73.6201V38.6035H74.8506L74.8848 39.7656ZM77.1953 38.5625L77.1885 39.7383C77.0837 39.7155 76.9834 39.7018 76.8877 39.6973C76.7965 39.6882 76.6917 39.6836 76.5732 39.6836C76.2816 39.6836 76.0241 39.7292 75.8008 39.8203C75.5775 39.9115 75.3883 40.0391 75.2334 40.2031C75.0785 40.3672 74.9554 40.5632 74.8643 40.791C74.7777 41.0143 74.7207 41.2604 74.6934 41.5293L74.3379 41.7344C74.3379 41.2878 74.3812 40.8685 74.4678 40.4766C74.5589 40.0846 74.6979 39.7383 74.8848 39.4375C75.0716 39.1322 75.3086 38.8952 75.5957 38.7266C75.8874 38.5534 76.2337 38.4668 76.6348 38.4668C76.7259 38.4668 76.8307 38.4782 76.9492 38.501C77.0677 38.5192 77.1497 38.5397 77.1953 38.5625ZM82.8896 44.5645V35.5H84.1611V46H82.999L82.8896 44.5645ZM77.9131 42.3838V42.2402C77.9131 41.6751 77.9814 41.1624 78.1182 40.7021C78.2594 40.2373 78.4577 39.8385 78.7129 39.5059C78.9727 39.1732 79.2803 38.918 79.6357 38.7402C79.9958 38.5579 80.3968 38.4668 80.8389 38.4668C81.3037 38.4668 81.7093 38.5488 82.0557 38.7129C82.4066 38.8724 82.7028 39.1071 82.9443 39.417C83.1904 39.7223 83.3841 40.0915 83.5254 40.5244C83.6667 40.9574 83.7646 41.4473 83.8193 41.9941V42.623C83.7692 43.1654 83.6712 43.653 83.5254 44.0859C83.3841 44.5189 83.1904 44.888 82.9443 45.1934C82.7028 45.4987 82.4066 45.7334 82.0557 45.8975C81.7048 46.057 81.2946 46.1367 80.8252 46.1367C80.3923 46.1367 79.9958 46.0433 79.6357 45.8564C79.2803 45.6696 78.9727 45.4076 78.7129 45.0703C78.4577 44.7331 78.2594 44.3366 78.1182 43.8809C77.9814 43.4206 77.9131 42.9215 77.9131 42.3838ZM79.1846 42.2402V42.3838C79.1846 42.7529 79.221 43.0993 79.2939 43.4229C79.3714 43.7464 79.4899 44.0312 79.6494 44.2773C79.8089 44.5234 80.0117 44.7171 80.2578 44.8584C80.5039 44.9951 80.7979 45.0635 81.1396 45.0635C81.5589 45.0635 81.903 44.9746 82.1719 44.7969C82.4453 44.6191 82.6641 44.3844 82.8281 44.0928C82.9922 43.8011 83.1198 43.4844 83.2109 43.1426V41.4951C83.1562 41.2445 83.0765 41.0029 82.9717 40.7705C82.8714 40.5335 82.7393 40.3239 82.5752 40.1416C82.4157 39.9548 82.2174 39.8066 81.9805 39.6973C81.748 39.5879 81.4723 39.5332 81.1533 39.5332C80.807 39.5332 80.5085 39.6061 80.2578 39.752C80.0117 39.8932 79.8089 40.0892 79.6494 40.3398C79.4899 40.5859 79.3714 40.873 79.2939 41.2012C79.221 41.5247 79.1846 41.8711 79.1846 42.2402ZM90.4365 44.0381C90.4365 43.8558 90.3955 43.6872 90.3135 43.5322C90.236 43.3727 90.0742 43.2292 89.8281 43.1016C89.5866 42.9694 89.222 42.8555 88.7344 42.7598C88.3242 42.6732 87.9528 42.5706 87.6201 42.4521C87.292 42.3337 87.0117 42.1901 86.7793 42.0215C86.5514 41.8529 86.376 41.6546 86.2529 41.4268C86.1299 41.1989 86.0684 40.9323 86.0684 40.627C86.0684 40.3353 86.1322 40.0596 86.2598 39.7998C86.3919 39.54 86.5765 39.3099 86.8135 39.1094C87.055 38.9089 87.3444 38.7516 87.6816 38.6377C88.0189 38.5238 88.3949 38.4668 88.8096 38.4668C89.402 38.4668 89.9079 38.5716 90.3271 38.7812C90.7464 38.9909 91.0677 39.2712 91.291 39.6221C91.5143 39.9684 91.626 40.3535 91.626 40.7773H90.3613C90.3613 40.5723 90.2998 40.374 90.1768 40.1826C90.0583 39.9867 89.8828 39.8249 89.6504 39.6973C89.4225 39.5697 89.1423 39.5059 88.8096 39.5059C88.4587 39.5059 88.1738 39.5605 87.9551 39.6699C87.7409 39.7747 87.5837 39.9092 87.4834 40.0732C87.3877 40.2373 87.3398 40.4105 87.3398 40.5928C87.3398 40.7295 87.3626 40.8525 87.4082 40.9619C87.4583 41.0667 87.5449 41.1647 87.668 41.2559C87.791 41.3424 87.9642 41.4245 88.1875 41.502C88.4108 41.5794 88.6956 41.6569 89.042 41.7344C89.6481 41.8711 90.1471 42.0352 90.5391 42.2266C90.931 42.418 91.2227 42.6527 91.4141 42.9307C91.6055 43.2087 91.7012 43.5459 91.7012 43.9424C91.7012 44.266 91.6328 44.5622 91.4961 44.8311C91.3639 45.0999 91.1702 45.3324 90.915 45.5283C90.6644 45.7197 90.3636 45.8701 90.0127 45.9795C89.6663 46.0843 89.2767 46.1367 88.8438 46.1367C88.1921 46.1367 87.6406 46.0205 87.1895 45.7881C86.7383 45.5557 86.3965 45.2549 86.1641 44.8857C85.9316 44.5166 85.8154 44.127 85.8154 43.7168H87.0869C87.1051 44.0632 87.2054 44.3389 87.3877 44.5439C87.57 44.7445 87.7933 44.888 88.0576 44.9746C88.3219 45.0566 88.584 45.0977 88.8438 45.0977C89.1901 45.0977 89.4795 45.0521 89.7119 44.9609C89.9489 44.8698 90.1289 44.7445 90.252 44.585C90.375 44.4255 90.4365 44.2432 90.4365 44.0381ZM99.7539 40.6611V41.8506H92.9316V40.6611H99.7539ZM96.9785 37.7559V45.002H95.7139V37.7559H96.9785Z" fill="#020202"/>
<g clip-path="url(#clip1_3_2)">
<path d="M74.9688 27.2359L77.2188 29.4859L79.4969 27.2078C79.583 27.139 79.6872 27.0967 79.7969 27.0859C79.8528 27.0841 79.9084 27.0938 79.9605 27.1143C80.0125 27.1349 80.0597 27.1659 80.0993 27.2054C80.1388 27.245 80.1698 27.2922 80.1904 27.3442C80.2109 27.3962 80.2206 27.4519 80.2188 27.5078C80.2221 27.5637 80.213 27.6197 80.1919 27.6716C80.1708 27.7236 80.1383 27.7701 80.0969 27.8078L77.5188 30.3859C77.481 30.4274 77.4345 30.4598 77.3826 30.4809C77.3307 30.502 77.2747 30.5112 77.2188 30.5078C77.1632 30.5083 77.1081 30.4977 77.0566 30.4768C77.0051 30.4559 76.9583 30.425 76.9188 30.3859L74.3406 27.8078C74.2681 27.724 74.2252 27.6185 74.2188 27.5078C74.2169 27.4519 74.2266 27.3962 74.2471 27.3442C74.2677 27.2922 74.2987 27.245 74.3383 27.2054C74.3778 27.1659 74.425 27.1349 74.477 27.1143C74.5291 27.0938 74.5847 27.0841 74.6406 27.0859C74.7033 27.0829 74.7658 27.0949 74.8229 27.121C74.88 27.1471 74.93 27.1865 74.9688 27.2359Z" fill="#020202"/>
</g>
<defs>
<clipPath id="clip0_3_2">
<rect width="21" height="21" fill="white" transform="translate(43.8125 11)"/>
</clipPath>
<clipPath id="clip1_3_2">
<rect width="6" height="6" fill="white" transform="translate(74.2188 25.7969)"/>
</clipPath>
</defs>
</svg>
