<svg xmlns:xlink="http://www.w3.org/1999/xlink" xmlns="http://www.w3.org/2000/svg" height="18" width="18" viewBox="0 0 17 18" preserveAspectRatio="xMinYMid meet"><defs><g id="search"><path d="M17.0367 16.3858C16.984 16.4439 16.9197 16.49 16.8479 16.5212C16.7762 16.5524 16.6986 16.5679 16.6204 16.5666C16.5424 16.5671 16.465 16.5513 16.3934 16.5202C16.3217 16.4891 16.2573 16.4433 16.2042 16.3858L11.8729 12.0345C10.5406 13.1575 8.82814 13.7206 7.09267 13.6062C5.35719 13.4919 3.73263 12.709 2.55768 11.4207C1.38272 10.1325 0.74807 8.43834 0.786034 6.69151C0.823998 4.94467 1.53165 3.27997 2.76145 2.04447C3.99125 0.808977 5.64828 0.0980459 7.38707 0.0599061C9.12586 0.0217663 10.8122 0.659354 12.0945 1.83975C13.3768 3.02014 14.1561 4.65223 14.2699 6.39574C14.3837 8.13925 13.8233 9.8596 12.7054 11.1981L17.0367 15.5494C17.0913 15.6015 17.1353 15.6639 17.1659 15.7331C17.1966 15.8022 17.2134 15.8768 17.2154 15.9524C17.2173 16.0281 17.2045 16.1034 17.1775 16.1741C17.1505 16.2448 17.1099 16.3094 17.0581 16.3643C17.0511 16.3717 17.044 16.3788 17.0367 16.3858ZM7.5867 1.36534C6.49866 1.36534 5.43505 1.68949 4.53037 2.29677C3.6257 2.90405 2.92059 3.76721 2.50421 4.77708C2.08784 5.78695 1.9789 6.89818 2.19116 7.97026C2.40343 9.04233 2.92737 10.0271 3.69673 10.8C4.4661 11.5729 5.44632 12.0993 6.51346 12.3126C7.5806 12.5258 8.68671 12.4164 9.69193 11.9981C10.6972 11.5798 11.5563 10.8714 12.1608 9.96254C12.7653 9.05367 13.0879 7.98513 13.0879 6.89205C13.0879 5.42628 12.5083 4.02054 11.4767 2.98408C10.445 1.94762 9.04572 1.36534 7.5867 1.36534Z" fill="currentColor"></path></g></defs><title>Perform Search Action</title><use xlink:href="#search"></use></svg>