<svg width="19" height="18" viewBox="0 0 19 18" fill="none" xmlns="http://www.w3.org/2000/svg">
<g clip-path="url(#clip0_1_513)">
<path d="M17.3804 16.3858C17.3277 16.4439 17.2635 16.49 17.1917 16.5212C17.12 16.5524 17.0423 16.5679 16.9641 16.5666C16.8861 16.5671 16.8088 16.5513 16.7372 16.5202C16.6655 16.4891 16.6011 16.4433 16.548 16.3858L12.2167 12.0345C10.8843 13.1575 9.17189 13.7206 7.43642 13.6062C5.70094 13.4919 4.07638 12.709 2.90143 11.4207C1.72647 10.1325 1.09182 8.43834 1.12978 6.69151C1.16775 4.94467 1.8754 3.27997 3.1052 2.04447C4.335 0.808977 5.99203 0.0980459 7.73082 0.0599061C9.46961 0.0217663 11.1559 0.659354 12.4382 1.83975C13.7205 3.02014 14.4999 4.65223 14.6137 6.39574C14.7275 8.13925 14.1671 9.8596 13.0492 11.1981L17.3804 15.5494C17.435 15.6015 17.479 15.6639 17.5096 15.7331C17.5403 15.8022 17.5571 15.8768 17.5592 15.9524C17.5611 16.0281 17.5483 16.1034 17.5212 16.1741C17.4942 16.2448 17.4536 16.3094 17.4018 16.3643C17.3948 16.3717 17.3877 16.3788 17.3804 16.3858ZM7.93045 1.36534C6.84241 1.36534 5.7788 1.68949 4.87412 2.29677C3.96945 2.90405 3.26434 3.76721 2.84796 4.77708C2.43159 5.78695 2.32265 6.89818 2.53491 7.97026C2.74718 9.04233 3.27112 10.0271 4.04048 10.8C4.80985 11.5729 5.79007 12.0993 6.85721 12.3126C7.92435 12.5258 9.03046 12.4164 10.0357 11.9981C11.0409 11.5798 11.9001 10.8714 12.5045 9.96254C13.109 9.05367 13.4317 7.98513 13.4317 6.89205C13.4317 5.42628 12.852 4.02054 11.8204 2.98408C10.7887 1.94762 9.38947 1.36534 7.93045 1.36534Z" fill="#020202"/>
</g>
<defs>
<clipPath id="clip0_1_513">
<rect width="18" height="18" fill="white" transform="translate(0.34375)"/>
</clipPath>
</defs>
</svg>
