<svg xmlns:xlink="http://www.w3.org/1999/xlink" xmlns="http://www.w3.org/2000/svg" width="43" height="44" viewBox="0 0 43 44">
<path d="M30.0367 0.894043H12.8239C9.46036 0.8978 6.23559 2.23563 3.85719 4.61403C1.47879 6.99243 0.140964 10.2172 0.137207 13.5807V30.7936C0.140964 34.1571 1.47879 37.3818 3.85719 39.7602C6.23559 42.1386 9.46036 43.4765 12.8239 43.4803H23.2104V27.4447H17.8811V21.2802H23.2104V16.735C23.2104 11.4581 26.427 8.58122 31.1424 8.58122C32.7317 8.57578 34.3201 8.65812 35.9003 8.82789V14.3347L32.6318 14.3433C30.07 14.3433 29.5762 15.5605 29.5762 17.3394V21.2802H35.679L34.8878 27.4426H29.5766V43.4782H30.0372C33.4008 43.4744 36.6255 42.1366 39.0039 39.7582C41.3823 37.3798 42.7202 34.155 42.7239 30.7915V13.5796C42.7198 10.2161 41.3817 6.99167 39.0032 4.61352C36.6248 2.23537 33.4002 0.897738 30.0367 0.894043Z" fill="#222222"></path>
</svg>