<svg width='100'  height='100' ><defs><g id="arrow-up"><path fill="currentColor" d="M56,34.9l-24-24L7.7,35.2a6.07,6.07,0,0,1-3.2,1.3A4.36,4.36,0,0,1,0,32a4,4,0,0,1,1.3-3.2L28.8,1.3A4,4,0,0,1,32,0a4.5,4.5,0,0,1,3.2,1.3L62.7,28.8A5.37,5.37,0,0,1,64,32a4.36,4.36,0,0,1-4.5,4.5A4.19,4.19,0,0,1,56,34.9"></path></g><g id="menu"><path d="M22.3900156,11.0328397 L1.5725429,11.0328397 C0.711388456,11.0328397 0,10.5417797 0,9.97318388 C0,9.37874283 0.711388456,8.88768283 1.5725429,8.88768283 L1.5725429,8.88768283 L22.4274571,8.88768283 C23.2886115,8.88768283 24,9.35289756 24,9.94733861 C23.9625585,10.5676249 23.25117,11.0328397 22.3900156,11.0328397 L22.3900156,11.0328397 Z M22.3900156,2.14515684 L1.5725429,2.14515684 C0.711388456,2.14515684 0,1.65409684 0,1.05965579 C0,0.491059999 0.711388456,0 1.5725429,0 L1.5725429,0 L22.4274571,0 C23.25117,0 23.9625585,0.491059999 23.9625585,1.05965579 C23.9625585,1.65409684 23.25117,2.14515684 22.3900156,2.14515684 L22.3900156,2.14515684 Z M1.5725429,20 C0.711388456,20 0,19.5029515 0,18.9274216 C0,18.3257312 0.711388456,17.8548432 1.5725429,17.8548432 L1.5725429,17.8548432 L22.4274571,17.8548432 C23.2886115,17.8548432 24,18.3257312 24,18.9274216 C24,19.5291119 23.2886115,20 22.4274571,20 L1.5725429,20 Z"></path></g><g id="cardstack"><path fill="currentColor" d="M25.9,13h-1.8v3.1H21v1.8h3.1V21h1.8v-3.1H29v-1.8h-3.1V13z"></path><path fill="currentColor" d="M33,2H17c-1.1,0-2,0.9-2,2v4H7c-1.1,0-2,0.9-2,2v26c0,1.1,0.9,2,2,2h16c1.1,0,2-0.9,2-2v-4h8c1.1,0,2-0.9,2-2V4C35,2.9,34.1,2,33,2z M23,36H7V10h8v9h-0.9v3.1H11v1.8h3.1V27H15v3c0,1.1,0.9,2,2,2h6V36z M33,30H17V4h16V30z"></path></g><g id="coupon"><rect x="0.75" fill="transparent" y="1.0957" width="31.5" height="27.6923" rx="1.25" stroke="currentColor" stroke-width="1.5" stroke-dasharray="2 2"></rect><path fill-rule="evenodd" clip-rule="evenodd" d="M15.6946 12.5504C15.9519 12.6893 16.6345 12.829 17.1496 12.9346C17.7896 13.0657 18.5592 13.2233 19.3224 13.4839C18.4005 12.8607 17.2296 12.4845 16.1683 12.4845C15.8979 12.4845 15.7596 12.5228 15.6946 12.5504ZM13.3695 17.3078C14.0395 17.9195 15.2528 18.7287 16.9825 18.7287C17.5013 18.7287 17.7903 18.6163 17.8991 18.5398C17.6431 18.4115 16.99 18.2896 16.4956 18.1976C15.5855 18.0279 14.4165 17.8102 13.3695 17.3078ZM15.9783 24.0883H17.5214V22.2365L17.9323 22.1807C20.495 21.8331 21.9062 20.3284 21.9062 17.9437C21.9062 15.1645 19.5728 14.4565 16.9736 13.9236C15.6588 13.6544 14.7092 13.4597 14.7092 12.6053C14.7092 12.1846 14.8988 11.4785 16.1687 11.4785C17.4358 11.4785 18.786 11.9157 19.8685 12.6628L21.4081 10.4789C20.4223 9.72713 19.2535 9.24773 17.9275 9.05246L17.5214 8.99264V7.06294H15.9783V8.9751L15.5685 9.03204C12.693 9.43034 11.6725 11.4409 11.6725 13.0418C11.6725 16.2766 14.5534 16.8135 16.657 17.2058C17.9038 17.4382 18.8886 17.6216 18.8886 18.4841C18.8886 18.7777 18.7511 19.7351 16.9827 19.7351C15.075 19.7351 13.7035 18.8913 12.8962 18.1945L11.4037 20.4777C12.5256 21.4552 13.8872 22.0128 15.5519 22.179L15.9783 22.2216V24.0883ZM18.4615 25.0958H15.0386V23.131C13.201 22.8719 11.6993 22.1506 10.458 20.9335L10.1541 20.6353L12.6129 16.874C11.5371 16.1366 10.7328 14.9693 10.7328 13.0428C10.7328 10.9681 12.0683 8.69045 15.0386 8.1032V6.05731H18.4615V8.12477C19.9568 8.4112 21.2673 9.03843 22.3622 9.99321L22.7134 10.2995L20.2133 13.8454C21.6411 14.5293 22.8464 15.7113 22.8464 17.9447C22.8464 20.7248 21.255 22.5898 18.4615 23.114V25.0958Z" fill="currentColor"></path></g><g id="person"><path d="M18.7499 15.2357C17.9662 14.8304 17.135 14.5245 16.2755 14.3249C17.7421 13.5721 18.9141 12.3496 19.6043 10.8526C20.2946 9.35557 20.4633 7.67045 20.0835 6.06633C19.7037 4.4622 18.7973 3.03161 17.5091 2.00303C16.2209 0.974457 14.6251 0.407222 12.9767 0.391919C11.3283 0.376617 9.72236 0.914137 8.41528 1.91862C7.1082 2.92311 6.17544 4.33662 5.76593 5.93341C5.35642 7.53021 5.49382 9.21817 6.15616 10.7277C6.8185 12.2373 7.96755 13.4814 9.41987 14.2613C8.41823 14.4261 7.44738 14.7419 6.54042 15.1979C0.130419 19.1404 0.599554 20.2713 0.691937 31.5249H25.1734C24.7725 20.6531 26.1788 19.9447 18.7499 15.2357ZM6.95033 7.76366C6.95016 6.58477 7.29963 5.4323 7.9545 4.45203C8.60936 3.47175 9.54023 2.70771 10.6294 2.25652C11.7185 1.80533 12.917 1.68727 14.0732 1.91727C15.2295 2.14726 16.2915 2.71499 17.125 3.54864C17.9586 4.38229 18.5262 5.44441 18.7561 6.60068C18.986 7.75694 18.8678 8.9554 18.4164 10.0445C17.9651 11.1336 17.201 12.0644 16.2206 12.7191C15.2403 13.3739 14.0878 13.7232 12.9089 13.7229C11.3292 13.7209 9.81476 13.0925 8.69775 11.9756C7.58074 10.8586 6.95232 9.34419 6.95033 7.76452V7.76366ZM2.08588 29.4076C2.0373 25.0266 2.00804 22.382 2.64548 20.6996C3.18951 19.2638 4.26387 18.263 7.23159 16.434C8.83973 15.6299 10.477 15.4963 12.1532 15.4225C12.4762 15.4083 12.7754 15.4013 13.0683 15.4013C15.0388 15.4013 16.6225 15.7394 18.0459 16.4648C21.1024 18.4051 22.3425 19.4817 22.9502 20.7186C23.6015 22.0443 23.6224 23.8123 23.6605 27.0214C23.6715 27.9493 23.6836 28.965 23.7129 30.109H20.4916V23.6867C20.4916 23.499 20.4171 23.319 20.2844 23.1863C20.1517 23.0536 19.9716 22.979 19.784 22.979C19.5963 22.979 19.4163 23.0536 19.2835 23.1863C19.1508 23.319 19.0763 23.499 19.0763 23.6867V30.109H6.75857V23.6867C6.75568 23.5009 6.67984 23.3237 6.54744 23.1934C6.41504 23.063 6.23671 22.9899 6.05091 22.9899C5.8651 22.9899 5.68673 23.063 5.55433 23.1934C5.42193 23.3237 5.34613 23.5009 5.34324 23.6867V30.109H2.0939C2.09116 29.8711 2.08851 29.6376 2.08588 29.4084V29.4076Z" fill="currentColor"></path></g><g id="bag"><rect class="bag-background" x="1" y="8" width="28" height="26" fill="currentColor"></rect><path d="M28.3807 35.2401H2.08082C1.60228 35.2398 1.14343 35.0505 0.805058 34.7137C0.466682 34.377 0.276438 33.9203 0.276123 33.4441V9.09709C0.276438 8.62084 0.466682 8.16419 0.805058 7.82743C1.14343 7.49067 1.60228 7.30134 2.08082 7.30103H28.3807C28.8592 7.30134 29.3181 7.49067 29.6564 7.82743C29.9948 8.16419 30.185 8.62084 30.1854 9.09709V33.4448C30.1848 33.921 29.9945 34.3774 29.6561 34.714C29.3178 35.0506 28.8591 35.2398 28.3807 35.2401ZM2.08082 8.88077C2.02296 8.88077 1.96747 8.90365 1.92656 8.94436C1.88565 8.98508 1.86266 9.04029 1.86266 9.09787V33.4448C1.86266 33.5024 1.88565 33.5577 1.92656 33.5984C1.96747 33.6391 2.02296 33.6619 2.08082 33.6619H28.3807C28.4385 33.6619 28.494 33.6391 28.5349 33.5984C28.5758 33.5577 28.5988 33.5024 28.5988 33.4448V9.09709C28.5988 9.03951 28.5758 8.98428 28.5349 8.94357C28.494 8.90285 28.4385 8.87997 28.3807 8.87997L2.08082 8.88077Z" fill="black"></path><path d="M22.3583 12.4423C22.1479 12.4423 21.9461 12.3592 21.7973 12.2111C21.6486 12.0631 21.565 11.8623 21.565 11.6529V8.58794C21.565 6.93061 20.9035 5.34115 19.7259 4.16924C18.5484 2.99733 16.9513 2.33896 15.286 2.33896C13.6207 2.33896 12.0236 2.99733 10.846 4.16924C9.66849 5.34115 9.00695 6.93061 9.00695 8.58794V11.6529C9.00695 11.8623 8.92337 12.0631 8.77461 12.2111C8.62584 12.3592 8.42407 12.4423 8.21368 12.4423C8.00329 12.4423 7.80152 12.3592 7.65275 12.2111C7.50399 12.0631 7.42041 11.8623 7.42041 11.6529V8.58794C7.42041 6.51184 8.2491 4.52078 9.72418 3.05276C11.1993 1.58473 13.1999 0.76001 15.286 0.76001C17.372 0.76001 19.3727 1.58473 20.8478 3.05276C22.3228 4.52078 23.1515 6.51184 23.1515 8.58794V11.6529C23.1515 11.8623 23.068 12.0631 22.9192 12.2111C22.7704 12.3592 22.5687 12.4423 22.3583 12.4423Z" fill="black"></path></g><g id="search"><path d="M17.0367 16.3858C16.984 16.4439 16.9197 16.49 16.8479 16.5212C16.7762 16.5524 16.6986 16.5679 16.6204 16.5666C16.5424 16.5671 16.465 16.5513 16.3934 16.5202C16.3217 16.4891 16.2573 16.4433 16.2042 16.3858L11.8729 12.0345C10.5406 13.1575 8.82814 13.7206 7.09267 13.6062C5.35719 13.4919 3.73263 12.709 2.55768 11.4207C1.38272 10.1325 0.74807 8.43834 0.786034 6.69151C0.823998 4.94467 1.53165 3.27997 2.76145 2.04447C3.99125 0.808977 5.64828 0.0980459 7.38707 0.0599061C9.12586 0.0217663 10.8122 0.659354 12.0945 1.83975C13.3768 3.02014 14.1561 4.65223 14.2699 6.39574C14.3837 8.13925 13.8233 9.8596 12.7054 11.1981L17.0367 15.5494C17.0913 15.6015 17.1353 15.6639 17.1659 15.7331C17.1966 15.8022 17.2134 15.8768 17.2154 15.9524C17.2173 16.0281 17.2045 16.1034 17.1775 16.1741C17.1505 16.2448 17.1099 16.3094 17.0581 16.3643C17.0511 16.3717 17.044 16.3788 17.0367 16.3858ZM7.5867 1.36534C6.49866 1.36534 5.43505 1.68949 4.53037 2.29677C3.6257 2.90405 2.92059 3.76721 2.50421 4.77708C2.08784 5.78695 1.9789 6.89818 2.19116 7.97026C2.40343 9.04233 2.92737 10.0271 3.69673 10.8C4.4661 11.5729 5.44632 12.0993 6.51346 12.3126C7.5806 12.5258 8.68671 12.4164 9.69193 11.9981C10.6972 11.5798 11.5563 10.8714 12.1608 9.96254C12.7653 9.05367 13.0879 7.98513 13.0879 6.89205C13.0879 5.42628 12.5083 4.02054 11.4767 2.98408C10.445 1.94762 9.04572 1.36534 7.5867 1.36534Z" fill="currentColor"></path></g><g id="storebag"><path d="M14.4281 17.4002H1.67515C1.4431 17.4 1.2206 17.3078 1.05652 17.1437C0.89244 16.9796 0.800202 16.7571 0.800049 16.5251V4.66244C0.800227 4.43041 0.892481 4.20792 1.05656 4.04385C1.22063 3.87977 1.44311 3.78753 1.67515 3.78735H14.4281C14.6601 3.78753 14.8826 3.87977 15.0467 4.04385C15.2108 4.20792 15.303 4.43041 15.3032 4.66244V16.5255C15.3029 16.7575 15.2106 16.9799 15.0466 17.1439C14.8825 17.3079 14.6601 17.4 14.4281 17.4002ZM1.67515 4.55696C1.64709 4.55696 1.62019 4.56811 1.60035 4.58795C1.58051 4.60778 1.56937 4.63469 1.56937 4.66275V16.5258C1.56937 16.5538 1.58051 16.5807 1.60035 16.6006C1.62019 16.6204 1.64709 16.6315 1.67515 16.6315H14.4281C14.4561 16.6315 14.4831 16.6204 14.5029 16.6006C14.5227 16.5807 14.5339 16.5538 14.5339 16.5258V4.66244C14.5339 4.63439 14.5227 4.6075 14.5029 4.58767C14.4831 4.56783 14.4561 4.55667 14.4281 4.55667L1.67515 4.55696Z" fill="currentColor"></path><path d="M11.5079 6.29218C11.4058 6.29218 11.308 6.25165 11.2359 6.17951C11.1637 6.10737 11.1232 6.00954 11.1232 5.90752V4.41416C11.1232 3.60665 10.8024 2.8322 10.2314 2.2612C9.66041 1.6902 8.88597 1.36942 8.07846 1.36942C7.27094 1.36942 6.4965 1.6902 5.92551 2.2612C5.35451 2.8322 5.03373 3.60665 5.03373 4.41416V5.90752C5.03373 6.00954 4.9932 6.10737 4.92107 6.17951C4.84893 6.25165 4.75108 6.29218 4.64906 6.29218C4.54705 6.29218 4.44921 6.25165 4.37707 6.17951C4.30494 6.10737 4.2644 6.00954 4.2644 5.90752V4.41416C4.2644 3.40261 4.66624 2.43249 5.38151 1.71722C6.09679 1.00195 7.06691 0.600098 8.07846 0.600098C9.09001 0.600098 10.0601 1.00195 10.7754 1.71722C11.4907 2.43249 11.8925 3.40261 11.8925 4.41416V5.90752C11.8925 6.00954 11.852 6.10737 11.7799 6.17951C11.7077 6.25165 11.6099 6.29218 11.5079 6.29218Z" fill="currentColor"></path><path d="M11.9201 15.4619L11.6316 15.4607H4.19538V9.00262H4.03296C3.95532 9.00252 3.88089 8.97161 3.82601 8.91669C3.77113 8.86177 3.74029 8.78732 3.74023 8.70969V8.38332C3.74044 8.06226 3.86798 7.75438 4.09488 7.52723C4.32178 7.30007 4.6295 7.17219 4.95056 7.17163H11.1652C11.4863 7.17222 11.794 7.3001 12.0209 7.52725C12.2478 7.7544 12.3753 8.06228 12.3755 8.38332V8.70969C12.3754 8.78731 12.3446 8.86175 12.2897 8.91667C12.2349 8.97158 12.1605 9.00249 12.0828 9.00262H11.9203L11.9201 15.4619ZM4.44521 15.2107H11.6701V8.75249H12.0827C12.0883 8.75247 12.0938 8.75136 12.099 8.7492C12.1042 8.74704 12.1089 8.74386 12.1129 8.73988C12.1168 8.7359 12.12 8.73118 12.1221 8.72598C12.1243 8.72078 12.1254 8.71521 12.1253 8.70959V8.38323C12.1252 8.12847 12.024 7.88416 11.844 7.7039C11.664 7.52363 11.4198 7.42211 11.165 7.42158H4.95037C4.6956 7.42208 4.45142 7.5236 4.27138 7.70387C4.09135 7.88414 3.99015 8.12845 3.98997 8.38323V8.70959C3.98997 8.72095 3.99448 8.73186 4.00251 8.7399C4.01053 8.74794 4.02141 8.75246 4.03277 8.75249H4.44521V15.2107ZM11.5848 15.1242H4.53071V8.75211H11.5849L11.5848 15.1242ZM10.1173 14.8742H11.3348V9.00213H4.78074V14.8742H5.99819V11.8125H5.92549C5.86056 11.8124 5.79832 11.7865 5.75244 11.7406C5.70655 11.6946 5.68077 11.6324 5.68075 11.5674C5.68075 10.5429 6.7026 9.77039 8.05776 9.77039C9.41292 9.77039 10.4349 10.5429 10.4349 11.5674C10.4348 11.6324 10.409 11.6946 10.3631 11.7406C10.3172 11.7865 10.255 11.8124 10.19 11.8125H10.1174L10.1173 14.8742ZM8.31673 14.8742H9.62746V11.8442H8.31673V14.8742ZM6.48767 14.8742H7.82725V11.8442H6.48767V14.8742ZM8.07719 11.5942H9.8673V11.5724H6.24812V11.5942H8.07719ZM6.20052 11.3225H9.91499C9.75776 10.6993 9.00556 10.2603 8.05766 10.2603C7.10976 10.2603 6.35785 10.6994 6.20052 11.323V11.3225ZM12.04 8.66623H4.07546V8.38283C4.07554 8.15066 4.16773 7.92801 4.33179 7.76374C4.49586 7.59948 4.7184 7.50704 4.95056 7.50668H11.1652C11.3974 7.50704 11.6199 7.59948 11.784 7.76374C11.9481 7.92801 12.0403 8.15066 12.0403 8.38283L12.04 8.66623ZM4.3254 8.41619H11.79V8.38283C11.79 8.21697 11.7241 8.05791 11.6069 7.94053C11.4898 7.82315 11.3308 7.75703 11.165 7.7567H4.95028C4.78442 7.75703 4.62546 7.82315 4.50828 7.94053C4.39109 8.05791 4.32526 8.21697 4.32521 8.38283L4.3254 8.41619Z" fill="currentColor"></path></g><g id="close"><path fill="none" d="M0 0h24v24H0V0z"></path><path stroke="currentColor" fill="currentColor" d="M18.3 5.71c-.39-.39-1.02-.39-1.41 0L12 10.59 7.11 5.7c-.39-.39-1.02-.39-1.41 0-.39.39-.39 1.02 0 1.41L10.59 12 5.7 16.89c-.39.39-.39 1.02 0 1.41.39.39 1.02.39 1.41 0L12 13.41l4.89 4.89c.39.39 1.02.39 1.41 0 .39-.39.39-1.02 0-1.41L13.41 12l4.89-4.89c.38-.38.38-1.02 0-1.4z"></path></g><g id="arrow-down"><path fill="currentColor" d="M8,1.6l24,24L56.3,1.3A6.07,6.07,0,0,1,59.5,0,4.36,4.36,0,0,1,64,4.5a4,4,0,0,1-1.3,3.2L35.2,35.2A4,4,0,0,1,32,36.5a4.5,4.5,0,0,1-3.2-1.3L1.3,7.7A5.37,5.37,0,0,1,0,4.5,4.36,4.36,0,0,1,4.5,0,4.19,4.19,0,0,1,8,1.6"></path></g><g id="check"><path d="M0 0h24v24H0V0z" fill="none"></path><path fill="currentColor" d="M12 2C6.48 2 2 6.48 2 12s4.48 10 10 10 10-4.48 10-10S17.52 2 12 2zm0 18c-4.41 0-8-3.59-8-8s3.59-8 8-8 8 3.59 8 8-3.59 8-8 8zm3.88-11.71L10 14.17l-1.88-1.88c-.39-.39-1.02-.39-1.41 0-.39.39-.39 1.02 0 1.41l2.59 2.59c.39.39 1.02.39 1.41 0L17.3 9.7c.39-.39.39-1.02 0-1.41-.39-.39-1.03-.39-1.42 0z"></path></g><g id="map-pin"><path fill="currentColor" d="M5.65,0A5.65,5.65,0,0,0,0,5.65c0,1.68.91,4.12,2.7,7.24a46,46,0,0,0,2.68,4.17l.27.38.27-.38A48.67,48.67,0,0,0,8.6,12.89c1.79-3.12,2.7-5.56,2.7-7.24A5.66,5.66,0,0,0,5.65,0Z"></path><circle cx="5.65" cy="5.86" r="3.83" fill="white"></circle></g></defs></svg>